<svg width="610" height="300" viewBox="0 0 610 300" fill="none" xmlns="http://www.w3.org/2000/svg">
<g clip-path="url(#clip0_336_333)">
<path d="M0 0H610V300H0V0Z" fill="url(#paint0_radial_336_333)"/>
<path d="M217.044 138.757C213.426 138.506 210.103 137.699 207.076 136.335C204.09 134.974 201.542 133.173 199.43 130.931C197.322 128.647 195.727 126.034 194.648 123.094C193.61 120.157 193.208 117.007 193.441 113.644C193.676 110.239 194.508 107.175 195.937 104.451C197.411 101.687 199.348 99.3406 201.748 97.4109C204.151 95.4387 206.925 93.9839 210.069 93.0466C213.256 92.1122 216.658 91.7701 220.276 92.0203C223.937 92.2734 227.26 93.0806 230.245 94.4418C233.23 95.803 235.777 97.6257 237.886 99.91C239.998 102.152 241.572 104.741 242.609 107.678C243.692 110.576 244.116 113.727 243.88 117.133C243.648 120.495 242.794 123.558 241.32 126.322C239.888 129.088 237.971 131.458 235.568 133.43C233.168 135.36 230.396 136.793 227.251 137.73C224.107 138.668 220.705 139.01 217.044 138.757ZM217.888 126.562C219.292 126.659 220.608 126.493 221.835 126.065C223.105 125.64 224.219 124.99 225.178 124.115C226.182 123.201 226.987 122.08 227.591 120.753C228.199 119.384 228.564 117.827 228.684 116.082C228.805 114.337 228.657 112.765 228.241 111.368C227.827 109.928 227.184 108.707 226.313 107.706C225.486 106.665 224.474 105.847 223.275 105.251C222.118 104.657 220.838 104.312 219.433 104.215C218.028 104.118 216.691 104.282 215.421 104.708C214.194 105.136 213.079 105.807 212.075 106.722C211.116 107.596 210.333 108.718 209.725 110.087C209.12 111.414 208.757 112.95 208.636 114.695C208.516 116.44 208.662 118.033 209.076 119.473C209.492 120.87 210.114 122.09 210.94 123.13C211.812 124.132 212.826 124.929 213.982 125.522C215.181 126.118 216.483 126.465 217.888 126.562ZM247.804 139.857L250.894 95.1641L272.411 96.652C276.582 96.9405 280.132 97.8702 283.06 99.4413C286.03 101.015 288.257 103.137 289.741 105.805C291.227 108.432 291.851 111.468 291.613 114.916C291.374 118.364 290.338 121.286 288.505 123.683C286.671 126.079 284.173 127.874 281.011 129.067C277.895 130.22 274.251 130.652 270.08 130.364L256.927 129.454L264.077 123.469L262.872 140.899L247.804 139.857ZM263.962 125.129L257.731 117.834L269.926 118.677C272.011 118.821 273.576 118.459 274.62 117.59C275.706 116.724 276.305 115.483 276.417 113.865C276.529 112.248 276.106 110.936 275.15 109.929C274.235 108.924 272.735 108.35 270.65 108.206L258.455 107.363L265.631 100.995L263.962 125.129ZM310.363 115.956L330.284 117.334L329.533 128.188L309.613 126.81L310.363 115.956ZM310.228 132.755L332.575 134.3L331.789 145.665L294.629 143.095L297.72 98.4022L334.049 100.914L333.263 112.279L311.747 110.791L310.228 132.755ZM337.589 146.066L340.68 101.373L353.066 102.23L373.915 131L368.169 130.603L370.05 103.404L384.735 104.42L381.644 149.113L369.258 148.256L348.409 119.485L354.155 119.883L352.274 147.082L337.589 146.066Z" fill="white"/>
<mask id="path-3-outside-1_336_333" maskUnits="userSpaceOnUse" x="179" y="153.825" width="238" height="53" fill="black">
<rect fill="white" x="179" y="153.825" width="238" height="53"/>
<path d="M213.095 158.025H223.463V202.825H213.095V158.025ZM192.743 202.825H182.375V158.025H192.743V202.825ZM213.863 184.457H191.975V175.689H213.863V184.457ZM255.822 203.593C252.281 203.593 248.995 203.017 245.966 201.865C242.979 200.713 240.377 199.091 238.158 197.001C235.982 194.91 234.275 192.457 233.038 189.641C231.843 186.825 231.246 183.753 231.246 180.425C231.246 177.097 231.843 174.025 233.038 171.209C234.275 168.393 236.003 165.939 238.222 163.849C240.441 161.758 243.043 160.137 246.03 158.985C249.017 157.833 252.259 157.257 255.758 157.257C259.299 157.257 262.542 157.833 265.486 158.985C268.473 160.137 271.054 161.758 273.23 163.849C275.449 165.939 277.177 168.393 278.414 171.209C279.651 173.982 280.27 177.054 280.27 180.425C280.27 183.753 279.651 186.846 278.414 189.705C277.177 192.521 275.449 194.974 273.23 197.065C271.054 199.113 268.473 200.713 265.486 201.865C262.542 203.017 259.321 203.593 255.822 203.593ZM255.758 194.761C257.763 194.761 259.598 194.419 261.262 193.737C262.969 193.054 264.462 192.073 265.742 190.793C267.022 189.513 268.003 187.998 268.686 186.249C269.411 184.499 269.774 182.558 269.774 180.425C269.774 178.291 269.411 176.35 268.686 174.601C268.003 172.851 267.022 171.337 265.742 170.057C264.505 168.777 263.033 167.795 261.326 167.113C259.619 166.43 257.763 166.089 255.758 166.089C253.753 166.089 251.897 166.43 250.19 167.113C248.526 167.795 247.054 168.777 245.774 170.057C244.494 171.337 243.491 172.851 242.766 174.601C242.083 176.35 241.742 178.291 241.742 180.425C241.742 182.515 242.083 184.457 242.766 186.249C243.491 187.998 244.473 189.513 245.71 190.793C246.99 192.073 248.483 193.054 250.19 193.737C251.897 194.419 253.753 194.761 255.758 194.761ZM307.966 203.593C301.609 203.593 296.638 201.822 293.054 198.281C289.47 194.739 287.678 189.683 287.678 183.113V158.025H298.046V182.729C298.046 186.995 298.921 190.067 300.67 191.945C302.419 193.822 304.873 194.761 308.03 194.761C311.187 194.761 313.641 193.822 315.39 191.945C317.139 190.067 318.014 186.995 318.014 182.729V158.025H328.254V183.113C328.254 189.683 326.462 194.739 322.878 198.281C319.294 201.822 314.323 203.593 307.966 203.593ZM353.22 203.593C349.636 203.593 346.201 203.123 342.916 202.185C339.63 201.203 336.985 199.945 334.98 198.409L338.5 190.601C340.42 191.966 342.681 193.097 345.284 193.993C347.929 194.846 350.596 195.273 353.284 195.273C355.332 195.273 356.974 195.081 358.212 194.697C359.492 194.27 360.43 193.694 361.028 192.969C361.625 192.243 361.924 191.411 361.924 190.473C361.924 189.278 361.454 188.339 360.516 187.657C359.577 186.931 358.34 186.355 356.804 185.929C355.268 185.459 353.561 185.033 351.684 184.649C349.849 184.222 347.993 183.71 346.116 183.113C344.281 182.515 342.596 181.747 341.06 180.809C339.524 179.87 338.265 178.633 337.284 177.097C336.345 175.561 335.876 173.598 335.876 171.209C335.876 168.649 336.558 166.323 337.924 164.233C339.332 162.099 341.422 160.414 344.196 159.177C347.012 157.897 350.532 157.257 354.756 157.257C357.572 157.257 360.345 157.598 363.076 158.281C365.806 158.921 368.217 159.902 370.308 161.225L367.108 169.097C365.017 167.902 362.926 167.027 360.836 166.473C358.745 165.875 356.697 165.577 354.692 165.577C352.686 165.577 351.044 165.811 349.764 166.281C348.484 166.75 347.566 167.369 347.012 168.137C346.457 168.862 346.18 169.715 346.18 170.697C346.18 171.849 346.649 172.787 347.588 173.513C348.526 174.195 349.764 174.75 351.3 175.177C352.836 175.603 354.521 176.03 356.356 176.457C358.233 176.883 360.089 177.374 361.924 177.929C363.801 178.483 365.508 179.23 367.044 180.169C368.58 181.107 369.817 182.345 370.756 183.881C371.737 185.417 372.228 187.358 372.228 189.705C372.228 192.222 371.524 194.526 370.116 196.617C368.708 198.707 366.596 200.393 363.78 201.673C361.006 202.953 357.486 203.593 353.22 203.593ZM388.848 176.073H410.416V184.137H388.848V176.073ZM389.616 194.505H414V202.825H379.312V158.025H413.168V166.345H389.616V194.505Z"/>
</mask>
<path d="M213.095 158.025H223.463V202.825H213.095V158.025ZM192.743 202.825H182.375V158.025H192.743V202.825ZM213.863 184.457H191.975V175.689H213.863V184.457ZM255.822 203.593C252.281 203.593 248.995 203.017 245.966 201.865C242.979 200.713 240.377 199.091 238.158 197.001C235.982 194.91 234.275 192.457 233.038 189.641C231.843 186.825 231.246 183.753 231.246 180.425C231.246 177.097 231.843 174.025 233.038 171.209C234.275 168.393 236.003 165.939 238.222 163.849C240.441 161.758 243.043 160.137 246.03 158.985C249.017 157.833 252.259 157.257 255.758 157.257C259.299 157.257 262.542 157.833 265.486 158.985C268.473 160.137 271.054 161.758 273.23 163.849C275.449 165.939 277.177 168.393 278.414 171.209C279.651 173.982 280.27 177.054 280.27 180.425C280.27 183.753 279.651 186.846 278.414 189.705C277.177 192.521 275.449 194.974 273.23 197.065C271.054 199.113 268.473 200.713 265.486 201.865C262.542 203.017 259.321 203.593 255.822 203.593ZM255.758 194.761C257.763 194.761 259.598 194.419 261.262 193.737C262.969 193.054 264.462 192.073 265.742 190.793C267.022 189.513 268.003 187.998 268.686 186.249C269.411 184.499 269.774 182.558 269.774 180.425C269.774 178.291 269.411 176.35 268.686 174.601C268.003 172.851 267.022 171.337 265.742 170.057C264.505 168.777 263.033 167.795 261.326 167.113C259.619 166.43 257.763 166.089 255.758 166.089C253.753 166.089 251.897 166.43 250.19 167.113C248.526 167.795 247.054 168.777 245.774 170.057C244.494 171.337 243.491 172.851 242.766 174.601C242.083 176.35 241.742 178.291 241.742 180.425C241.742 182.515 242.083 184.457 242.766 186.249C243.491 187.998 244.473 189.513 245.71 190.793C246.99 192.073 248.483 193.054 250.19 193.737C251.897 194.419 253.753 194.761 255.758 194.761ZM307.966 203.593C301.609 203.593 296.638 201.822 293.054 198.281C289.47 194.739 287.678 189.683 287.678 183.113V158.025H298.046V182.729C298.046 186.995 298.921 190.067 300.67 191.945C302.419 193.822 304.873 194.761 308.03 194.761C311.187 194.761 313.641 193.822 315.39 191.945C317.139 190.067 318.014 186.995 318.014 182.729V158.025H328.254V183.113C328.254 189.683 326.462 194.739 322.878 198.281C319.294 201.822 314.323 203.593 307.966 203.593ZM353.22 203.593C349.636 203.593 346.201 203.123 342.916 202.185C339.63 201.203 336.985 199.945 334.98 198.409L338.5 190.601C340.42 191.966 342.681 193.097 345.284 193.993C347.929 194.846 350.596 195.273 353.284 195.273C355.332 195.273 356.974 195.081 358.212 194.697C359.492 194.27 360.43 193.694 361.028 192.969C361.625 192.243 361.924 191.411 361.924 190.473C361.924 189.278 361.454 188.339 360.516 187.657C359.577 186.931 358.34 186.355 356.804 185.929C355.268 185.459 353.561 185.033 351.684 184.649C349.849 184.222 347.993 183.71 346.116 183.113C344.281 182.515 342.596 181.747 341.06 180.809C339.524 179.87 338.265 178.633 337.284 177.097C336.345 175.561 335.876 173.598 335.876 171.209C335.876 168.649 336.558 166.323 337.924 164.233C339.332 162.099 341.422 160.414 344.196 159.177C347.012 157.897 350.532 157.257 354.756 157.257C357.572 157.257 360.345 157.598 363.076 158.281C365.806 158.921 368.217 159.902 370.308 161.225L367.108 169.097C365.017 167.902 362.926 167.027 360.836 166.473C358.745 165.875 356.697 165.577 354.692 165.577C352.686 165.577 351.044 165.811 349.764 166.281C348.484 166.75 347.566 167.369 347.012 168.137C346.457 168.862 346.18 169.715 346.18 170.697C346.18 171.849 346.649 172.787 347.588 173.513C348.526 174.195 349.764 174.75 351.3 175.177C352.836 175.603 354.521 176.03 356.356 176.457C358.233 176.883 360.089 177.374 361.924 177.929C363.801 178.483 365.508 179.23 367.044 180.169C368.58 181.107 369.817 182.345 370.756 183.881C371.737 185.417 372.228 187.358 372.228 189.705C372.228 192.222 371.524 194.526 370.116 196.617C368.708 198.707 366.596 200.393 363.78 201.673C361.006 202.953 357.486 203.593 353.22 203.593ZM388.848 176.073H410.416V184.137H388.848V176.073ZM389.616 194.505H414V202.825H379.312V158.025H413.168V166.345H389.616V194.505Z" fill="#661020"/>
<path d="M213.095 158.025V155.025H210.095V158.025H213.095ZM223.463 158.025H226.463V155.025H223.463V158.025ZM223.463 202.825V205.825H226.463V202.825H223.463ZM213.095 202.825H210.095V205.825H213.095V202.825ZM192.743 202.825V205.825H195.743V202.825H192.743ZM182.375 202.825H179.375V205.825H182.375V202.825ZM182.375 158.025V155.025H179.375V158.025H182.375ZM192.743 158.025H195.743V155.025H192.743V158.025ZM213.863 184.457V187.457H216.863V184.457H213.863ZM191.975 184.457H188.975V187.457H191.975V184.457ZM191.975 175.689V172.689H188.975V175.689H191.975ZM213.863 175.689H216.863V172.689H213.863V175.689ZM213.095 161.025H223.463V155.025H213.095V161.025ZM220.463 158.025V202.825H226.463V158.025H220.463ZM223.463 199.825H213.095V205.825H223.463V199.825ZM216.095 202.825V158.025H210.095V202.825H216.095ZM192.743 199.825H182.375V205.825H192.743V199.825ZM185.375 202.825V158.025H179.375V202.825H185.375ZM182.375 161.025H192.743V155.025H182.375V161.025ZM189.743 158.025V202.825H195.743V158.025H189.743ZM213.863 181.457H191.975V187.457H213.863V181.457ZM194.975 184.457V175.689H188.975V184.457H194.975ZM191.975 178.689H213.863V172.689H191.975V178.689ZM210.863 175.689V184.457H216.863V175.689H210.863ZM245.966 201.865L244.886 204.664L244.893 204.666L244.9 204.669L245.966 201.865ZM238.158 197.001L236.08 199.164L236.09 199.174L236.101 199.184L238.158 197.001ZM233.038 189.641L230.276 190.812L230.284 190.83L230.291 190.848L233.038 189.641ZM233.038 171.209L230.291 170.002L230.284 170.019L230.276 170.037L233.038 171.209ZM246.03 158.985L244.95 156.186L244.95 156.186L246.03 158.985ZM265.486 158.985L264.393 161.778L264.4 161.781L264.406 161.784L265.486 158.985ZM273.23 163.849L271.152 166.012L271.162 166.022L271.173 166.032L273.23 163.849ZM278.414 171.209L275.667 172.416L275.671 172.423L275.674 172.431L278.414 171.209ZM278.414 189.705L281.161 190.912L281.164 190.904L281.167 190.896L278.414 189.705ZM273.23 197.065L275.286 199.249L275.287 199.248L273.23 197.065ZM265.486 201.865L264.406 199.066L264.4 199.068L264.393 199.071L265.486 201.865ZM261.262 193.737L260.148 190.951L260.136 190.956L260.123 190.961L261.262 193.737ZM265.742 190.793L263.621 188.671L263.621 188.671L265.742 190.793ZM268.686 186.249L265.915 185.1L265.903 185.129L265.891 185.158L268.686 186.249ZM268.686 174.601L265.891 175.691L265.903 175.721L265.915 175.75L268.686 174.601ZM265.742 170.057L263.585 172.142L263.603 172.16L263.621 172.178L265.742 170.057ZM261.326 167.113L260.212 169.898L260.212 169.898L261.326 167.113ZM250.19 167.113L249.076 164.327L249.064 164.332L249.051 164.337L250.19 167.113ZM245.774 170.057L247.895 172.178L247.895 172.178L245.774 170.057ZM242.766 174.601L239.995 173.452L239.983 173.481L239.971 173.51L242.766 174.601ZM242.766 186.249L239.963 187.317L239.978 187.357L239.995 187.398L242.766 186.249ZM245.71 190.793L243.553 192.878L243.571 192.896L243.589 192.914L245.71 190.793ZM250.19 193.737L249.076 196.522L249.076 196.522L250.19 193.737ZM255.822 200.593C252.611 200.593 249.691 200.072 247.032 199.061L244.9 204.669C248.3 205.962 251.95 206.593 255.822 206.593V200.593ZM247.046 199.066C244.403 198.046 242.137 196.628 240.215 194.817L236.101 199.184C238.616 201.555 241.555 203.379 244.886 204.664L247.046 199.066ZM240.236 194.837C238.349 193.024 236.867 190.898 235.785 188.434L230.291 190.848C231.684 194.016 233.615 196.796 236.08 199.164L240.236 194.837ZM235.8 188.469C234.776 186.055 234.246 183.386 234.246 180.425H228.246C228.246 184.12 228.911 187.594 230.276 190.812L235.8 188.469ZM234.246 180.425C234.246 177.464 234.776 174.794 235.8 172.38L230.276 170.037C228.911 173.255 228.246 176.73 228.246 180.425H234.246ZM235.785 172.416C236.861 169.965 238.356 167.844 240.279 166.032L236.165 161.665C233.65 164.035 231.689 166.821 230.291 170.002L235.785 172.416ZM240.279 166.032C242.201 164.221 244.467 162.803 247.11 161.784L244.95 156.186C241.619 157.47 238.68 159.295 236.165 161.665L240.279 166.032ZM247.11 161.784C249.721 160.776 252.594 160.257 255.758 160.257V154.257C251.925 154.257 248.312 154.889 244.95 156.186L247.11 161.784ZM255.758 160.257C258.97 160.257 261.837 160.778 264.393 161.778L266.579 156.191C263.247 154.887 259.629 154.257 255.758 154.257V160.257ZM264.406 161.784C267.044 162.801 269.28 164.214 271.152 166.012L275.308 161.685C272.828 159.302 269.901 157.472 266.566 156.186L264.406 161.784ZM271.173 166.032C273.096 167.844 274.591 169.965 275.667 172.416L281.161 170.002C279.763 166.821 277.802 164.035 275.287 161.665L271.173 166.032ZM275.674 172.431C276.722 174.779 277.27 177.429 277.27 180.425H283.27C283.27 176.679 282.581 173.185 281.154 169.986L275.674 172.431ZM277.27 180.425C277.27 183.371 276.724 186.056 275.661 188.513L281.167 190.896C282.578 187.636 283.27 184.134 283.27 180.425H277.27ZM275.667 188.498C274.591 190.949 273.096 193.069 271.173 194.881L275.287 199.248C277.802 196.879 279.763 194.093 281.161 190.912L275.667 188.498ZM271.174 194.88C269.3 196.644 267.057 198.043 264.406 199.066L266.566 204.664C269.888 203.382 272.808 201.582 275.286 199.249L271.174 194.88ZM264.393 199.071C261.832 200.073 258.986 200.593 255.822 200.593V206.593C259.655 206.593 263.252 205.961 266.579 204.658L264.393 199.071ZM255.758 197.761C258.109 197.761 260.336 197.359 262.401 196.512L260.123 190.961C258.86 191.48 257.418 191.761 255.758 191.761V197.761ZM262.376 196.522C264.454 195.691 266.292 194.486 267.863 192.914L263.621 188.671C262.632 189.66 261.483 190.417 260.148 190.951L262.376 196.522ZM267.863 192.914C269.448 191.33 270.653 189.46 271.481 187.339L265.891 185.158C265.354 186.536 264.596 187.696 263.621 188.671L267.863 192.914ZM271.457 187.398C272.352 185.241 272.774 182.903 272.774 180.425H266.774C266.774 182.213 266.471 183.758 265.915 185.1L271.457 187.398ZM272.774 180.425C272.774 177.947 272.352 175.609 271.457 173.452L265.915 175.75C266.471 177.092 266.774 178.636 266.774 180.425H272.774ZM271.481 173.51C270.653 171.389 269.448 169.52 267.863 167.935L263.621 172.178C264.596 173.154 265.354 174.314 265.891 175.691L271.481 173.51ZM267.899 167.972C266.358 166.377 264.527 165.162 262.44 164.327L260.212 169.898C261.538 170.429 262.652 171.176 263.585 172.142L267.899 167.972ZM262.44 164.327C260.348 163.49 258.11 163.089 255.758 163.089V169.089C257.417 169.089 258.891 169.37 260.212 169.898L262.44 164.327ZM255.758 163.089C253.406 163.089 251.168 163.49 249.076 164.327L251.304 169.898C252.625 169.37 254.099 169.089 255.758 169.089V163.089ZM249.051 164.337C247.017 165.172 245.212 166.376 243.653 167.935L247.895 172.178C248.896 171.177 250.035 170.419 251.329 169.888L249.051 164.337ZM243.653 167.935C242.082 169.506 240.864 171.356 239.995 173.452L245.537 175.75C246.119 174.347 246.906 173.167 247.895 172.178L243.653 167.935ZM239.971 173.51C239.136 175.651 238.742 177.969 238.742 180.425H244.742C244.742 178.614 245.031 177.049 245.561 175.691L239.971 173.51ZM238.742 180.425C238.742 182.847 239.139 185.154 239.963 187.317L245.569 185.181C245.028 183.759 244.742 182.183 244.742 180.425H238.742ZM239.995 187.398C240.855 189.472 242.038 191.31 243.553 192.878L247.867 188.708C246.908 187.715 246.128 186.524 245.537 185.1L239.995 187.398ZM243.589 192.914C245.16 194.486 246.998 195.691 249.076 196.522L251.304 190.951C249.969 190.417 248.82 189.66 247.831 188.671L243.589 192.914ZM249.076 196.522C251.168 197.359 253.406 197.761 255.758 197.761V191.761C254.099 191.761 252.625 191.48 251.304 190.951L249.076 196.522ZM293.054 198.281L295.163 196.147L295.163 196.147L293.054 198.281ZM287.678 158.025V155.025H284.678V158.025H287.678ZM298.046 158.025H301.046V155.025H298.046V158.025ZM300.67 191.945L298.475 193.99L298.475 193.99L300.67 191.945ZM315.39 191.945L317.585 193.99L317.585 193.99L315.39 191.945ZM318.014 158.025V155.025H315.014V158.025H318.014ZM328.254 158.025H331.254V155.025H328.254V158.025ZM322.878 198.281L324.987 200.415L324.987 200.415L322.878 198.281ZM307.966 200.593C302.181 200.593 298.047 198.997 295.163 196.147L290.945 200.415C295.229 204.647 301.036 206.593 307.966 206.593V200.593ZM295.163 196.147C292.308 193.326 290.678 189.136 290.678 183.113H284.678C284.678 190.231 286.632 196.153 290.945 200.415L295.163 196.147ZM290.678 183.113V158.025H284.678V183.113H290.678ZM287.678 161.025H298.046V155.025H287.678V161.025ZM295.046 158.025V182.729H301.046V158.025H295.046ZM295.046 182.729C295.046 187.283 295.958 191.289 298.475 193.99L302.865 189.9C301.883 188.846 301.046 186.708 301.046 182.729H295.046ZM298.475 193.99C300.919 196.612 304.246 197.761 308.03 197.761V191.761C305.499 191.761 303.92 191.032 302.865 189.9L298.475 193.99ZM308.03 197.761C311.814 197.761 315.141 196.612 317.585 193.99L313.195 189.9C312.14 191.032 310.561 191.761 308.03 191.761V197.761ZM317.585 193.99C320.102 191.289 321.014 187.283 321.014 182.729H315.014C315.014 186.708 314.177 188.846 313.195 189.9L317.585 193.99ZM321.014 182.729V158.025H315.014V182.729H321.014ZM318.014 161.025H328.254V155.025H318.014V161.025ZM325.254 158.025V183.113H331.254V158.025H325.254ZM325.254 183.113C325.254 189.136 323.624 193.326 320.769 196.147L324.987 200.415C329.3 196.153 331.254 190.231 331.254 183.113H325.254ZM320.769 196.147C317.885 198.997 313.751 200.593 307.966 200.593V206.593C314.896 206.593 320.703 204.647 324.987 200.415L320.769 196.147ZM342.916 202.185L342.057 205.059L342.074 205.064L342.091 205.069L342.916 202.185ZM334.98 198.409L332.245 197.176L331.267 199.344L333.155 200.79L334.98 198.409ZM338.5 190.601L340.238 188.156L337.264 186.041L335.765 189.368L338.5 190.601ZM345.284 193.993L344.307 196.829L344.335 196.839L344.362 196.848L345.284 193.993ZM358.212 194.697L359.101 197.562L359.131 197.553L359.16 197.543L358.212 194.697ZM361.028 192.969L358.712 191.062L358.712 191.062L361.028 192.969ZM360.516 187.657L358.681 190.031L358.716 190.057L358.751 190.083L360.516 187.657ZM356.804 185.929L355.927 188.798L355.964 188.809L356.001 188.819L356.804 185.929ZM351.684 184.649L351.004 187.571L351.043 187.58L351.082 187.588L351.684 184.649ZM346.116 183.113L345.187 185.965L345.196 185.968L345.206 185.971L346.116 183.113ZM341.06 180.809L339.495 183.369L339.495 183.369L341.06 180.809ZM337.284 177.097L334.724 178.661L334.739 178.687L334.755 178.712L337.284 177.097ZM337.924 164.233L335.42 162.58L335.416 162.586L335.412 162.592L337.924 164.233ZM344.196 159.177L345.418 161.916L345.427 161.912L345.437 161.908L344.196 159.177ZM363.076 158.281L362.348 161.191L362.369 161.197L362.391 161.202L363.076 158.281ZM370.308 161.225L373.087 162.354L374.031 160.031L371.911 158.689L370.308 161.225ZM367.108 169.097L365.619 171.701L368.596 173.402L369.887 170.226L367.108 169.097ZM360.836 166.473L360.011 169.357L360.039 169.365L360.066 169.372L360.836 166.473ZM349.764 166.281L348.731 163.464L348.731 163.464L349.764 166.281ZM347.012 168.137L349.395 169.959L349.42 169.926L349.444 169.893L347.012 168.137ZM347.588 173.513L345.753 175.887L345.788 175.913L345.823 175.939L347.588 173.513ZM351.3 175.177L350.497 178.067L350.497 178.067L351.3 175.177ZM356.356 176.457L355.676 179.379L355.683 179.38L355.691 179.382L356.356 176.457ZM361.924 177.929L361.055 180.8L361.064 180.803L361.073 180.806L361.924 177.929ZM367.044 180.169L368.608 177.609L368.608 177.609L367.044 180.169ZM370.756 183.881L368.196 185.445L368.211 185.471L368.227 185.496L370.756 183.881ZM370.116 196.617L372.604 198.293L372.604 198.293L370.116 196.617ZM363.78 201.673L362.538 198.942L362.53 198.945L362.522 198.949L363.78 201.673ZM353.22 200.593C349.901 200.593 346.744 200.159 343.74 199.3L342.091 205.069C345.658 206.088 349.37 206.593 353.22 206.593V200.593ZM343.774 199.31C340.721 198.398 338.437 197.278 336.804 196.027L333.155 200.79C335.533 202.612 338.539 204.008 342.057 205.059L343.774 199.31ZM337.714 199.642L341.234 191.834L335.765 189.368L332.245 197.176L337.714 199.642ZM336.761 193.046C338.95 194.602 341.477 195.855 344.307 196.829L346.26 191.156C343.884 190.338 341.889 189.33 340.238 188.156L336.761 193.046ZM344.362 196.848C347.295 197.794 350.272 198.273 353.284 198.273V192.273C350.919 192.273 348.563 191.898 346.205 191.138L344.362 196.848ZM353.284 198.273C355.48 198.273 357.458 198.072 359.101 197.562L357.322 191.832C356.49 192.09 355.183 192.273 353.284 192.273V198.273ZM359.16 197.543C360.754 197.012 362.264 196.187 363.343 194.876L358.712 191.062C358.597 191.201 358.229 191.529 357.263 191.851L359.16 197.543ZM363.343 194.876C364.382 193.614 364.924 192.108 364.924 190.473H358.924C358.924 190.715 358.867 190.873 358.712 191.062L363.343 194.876ZM364.924 190.473C364.924 188.351 364.021 186.497 362.28 185.23L358.751 190.083C358.817 190.131 358.851 190.166 358.866 190.184C358.881 190.201 358.886 190.21 358.888 190.214C358.89 190.219 358.898 190.234 358.906 190.269C358.914 190.306 358.924 190.371 358.924 190.473H364.924ZM362.35 185.283C361.018 184.254 359.395 183.535 357.606 183.038L356.001 188.819C357.284 189.176 358.136 189.609 358.681 190.031L362.35 185.283ZM357.68 183.06C356.038 182.558 354.238 182.109 352.285 181.71L351.082 187.588C352.884 187.956 354.497 188.361 355.927 188.798L357.68 183.06ZM352.363 181.727C350.609 181.319 348.83 180.828 347.025 180.254L345.206 185.971C347.156 186.592 349.088 187.125 351.004 187.571L352.363 181.727ZM347.044 180.26C345.416 179.73 343.946 179.057 342.624 178.249L339.495 183.369C341.245 184.438 343.145 185.301 345.187 185.965L347.044 180.26ZM342.624 178.249C341.482 177.551 340.551 176.639 339.812 175.482L334.755 178.712C335.979 180.627 337.565 182.189 339.495 183.369L342.624 178.249ZM339.843 175.532C339.272 174.598 338.876 173.222 338.876 171.209H332.876C332.876 173.974 333.417 176.524 334.724 178.661L339.843 175.532ZM338.876 171.209C338.876 169.216 339.397 167.463 340.435 165.873L335.412 162.592C333.719 165.184 332.876 168.082 332.876 171.209H338.876ZM340.427 165.885C341.465 164.312 343.067 162.965 345.418 161.916L342.973 156.437C339.777 157.863 337.198 159.886 335.42 162.58L340.427 165.885ZM345.437 161.908C347.748 160.857 350.812 160.257 354.756 160.257V154.257C350.251 154.257 346.275 154.936 342.954 156.446L345.437 161.908ZM354.756 160.257C357.326 160.257 359.855 160.568 362.348 161.191L363.803 155.37C360.834 154.628 357.817 154.257 354.756 154.257V160.257ZM362.391 161.202C364.839 161.775 366.931 162.638 368.704 163.76L371.911 158.689C369.503 157.166 366.774 156.066 363.76 155.36L362.391 161.202ZM367.528 160.095L364.328 167.967L369.887 170.226L373.087 162.354L367.528 160.095ZM368.596 166.492C366.305 165.183 363.974 164.201 361.605 163.573L360.066 169.372C361.879 169.853 363.729 170.621 365.619 171.701L368.596 166.492ZM361.66 163.588C359.323 162.921 356.998 162.577 354.692 162.577V168.577C356.396 168.577 358.166 168.83 360.011 169.357L361.66 163.588ZM354.692 162.577C352.484 162.577 350.458 162.831 348.731 163.464L350.796 169.097C351.629 168.792 352.888 168.577 354.692 168.577V162.577ZM348.731 163.464C347.124 164.053 345.607 164.957 344.579 166.38L349.444 169.893C349.525 169.78 349.843 169.447 350.796 169.097L348.731 163.464ZM344.628 166.314C343.643 167.603 343.18 169.109 343.18 170.697H349.18C349.18 170.322 349.271 170.121 349.395 169.959L344.628 166.314ZM343.18 170.697C343.18 172.81 344.105 174.613 345.753 175.887L349.422 171.139C349.263 171.016 349.223 170.939 349.215 170.923C349.208 170.91 349.18 170.853 349.18 170.697H343.18ZM345.823 175.939C347.138 176.895 348.735 177.578 350.497 178.067L352.102 172.286C350.792 171.922 349.914 171.495 349.352 171.086L345.823 175.939ZM350.497 178.067C352.08 178.507 353.807 178.944 355.676 179.379L357.035 173.535C355.235 173.116 353.591 172.7 352.102 172.286L350.497 178.067ZM355.691 179.382C357.5 179.793 359.288 180.266 361.055 180.8L362.792 175.057C360.89 174.482 358.966 173.973 357.02 173.531L355.691 179.382ZM361.073 180.806C362.722 181.293 364.185 181.938 365.479 182.729L368.608 177.609C366.83 176.522 364.88 175.674 362.774 175.052L361.073 180.806ZM365.479 182.729C366.609 183.419 367.505 184.315 368.196 185.445L373.315 182.316C372.129 180.374 370.55 178.796 368.608 177.609L365.479 182.729ZM368.227 185.496C368.823 186.429 369.228 187.768 369.228 189.705H375.228C375.228 186.948 374.65 184.405 373.284 182.266L368.227 185.496ZM369.228 189.705C369.228 191.624 368.702 193.345 367.627 194.941L372.604 198.293C374.345 195.707 375.228 192.82 375.228 189.705H369.228ZM367.627 194.941C366.593 196.477 364.964 197.839 362.538 198.942L365.021 204.404C368.227 202.946 370.822 200.938 372.604 198.293L367.627 194.941ZM362.522 198.949C360.267 199.99 357.213 200.593 353.22 200.593V206.593C357.759 206.593 361.745 205.916 365.037 204.397L362.522 198.949ZM388.848 176.073V173.073H385.848V176.073H388.848ZM410.416 176.073H413.416V173.073H410.416V176.073ZM410.416 184.137V187.137H413.416V184.137H410.416ZM388.848 184.137H385.848V187.137H388.848V184.137ZM389.616 194.505H386.616V197.505H389.616V194.505ZM414 194.505H417V191.505H414V194.505ZM414 202.825V205.825H417V202.825H414ZM379.312 202.825H376.312V205.825H379.312V202.825ZM379.312 158.025V155.025H376.312V158.025H379.312ZM413.168 158.025H416.168V155.025H413.168V158.025ZM413.168 166.345V169.345H416.168V166.345H413.168ZM389.616 166.345V163.345H386.616V166.345H389.616ZM388.848 179.073H410.416V173.073H388.848V179.073ZM407.416 176.073V184.137H413.416V176.073H407.416ZM410.416 181.137H388.848V187.137H410.416V181.137ZM391.848 184.137V176.073H385.848V184.137H391.848ZM389.616 197.505H414V191.505H389.616V197.505ZM411 194.505V202.825H417V194.505H411ZM414 199.825H379.312V205.825H414V199.825ZM382.312 202.825V158.025H376.312V202.825H382.312ZM379.312 161.025H413.168V155.025H379.312V161.025ZM410.168 158.025V166.345H416.168V158.025H410.168ZM413.168 163.345H389.616V169.345H413.168V163.345ZM386.616 166.345V194.505H392.616V166.345H386.616Z" fill="url(#paint1_radial_336_333)" mask="url(#path-3-outside-1_336_333)"/>
<path d="M185.772 238H176.79V236.11L180.016 232.85C180.666 232.182 181.188 231.625 181.58 231.18C181.979 230.729 182.266 230.318 182.441 229.949C182.623 229.58 182.714 229.185 182.714 228.763C182.714 228.253 182.57 227.872 182.283 227.62C182.002 227.362 181.624 227.233 181.149 227.233C180.651 227.233 180.168 227.348 179.699 227.576C179.23 227.805 178.741 228.13 178.231 228.552L176.755 226.803C177.124 226.486 177.514 226.188 177.924 225.906C178.34 225.625 178.82 225.399 179.365 225.229C179.916 225.054 180.575 224.966 181.343 224.966C182.187 224.966 182.91 225.118 183.514 225.423C184.123 225.728 184.592 226.144 184.92 226.671C185.248 227.192 185.412 227.784 185.412 228.446C185.412 229.155 185.271 229.803 184.99 230.389C184.709 230.975 184.299 231.555 183.76 232.129C183.227 232.703 182.582 233.339 181.826 234.036L180.174 235.592V235.715H185.772V238ZM191.767 229.791C192.552 229.791 193.249 229.94 193.858 230.239C194.474 230.538 194.957 230.978 195.309 231.558C195.66 232.138 195.836 232.853 195.836 233.702C195.836 234.628 195.643 235.428 195.256 236.102C194.875 236.77 194.304 237.282 193.542 237.64C192.786 237.997 191.843 238.176 190.712 238.176C190.038 238.176 189.402 238.117 188.805 238C188.213 237.889 187.694 237.716 187.249 237.481V235.135C187.694 235.369 188.228 235.568 188.849 235.732C189.476 235.891 190.064 235.97 190.615 235.97C191.154 235.97 191.608 235.899 191.978 235.759C192.347 235.612 192.625 235.39 192.812 235.091C193.006 234.786 193.103 234.399 193.103 233.931C193.103 233.304 192.892 232.823 192.47 232.489C192.048 232.155 191.4 231.988 190.527 231.988C190.193 231.988 189.845 232.021 189.481 232.085C189.124 232.149 188.825 232.214 188.585 232.278L187.504 231.698L187.987 225.15H194.957V227.453H190.369L190.132 229.976C190.331 229.935 190.548 229.894 190.782 229.853C191.017 229.812 191.345 229.791 191.767 229.791ZM200.573 235.908L200.705 236.11C200.6 236.532 200.462 236.986 200.292 237.473C200.128 237.959 199.946 238.445 199.747 238.932C199.554 239.418 199.357 239.881 199.158 240.32H197.225C197.342 239.846 197.456 239.348 197.567 238.826C197.679 238.305 197.781 237.792 197.875 237.288C197.975 236.784 198.054 236.324 198.112 235.908H200.573ZM216.183 238H207.2V236.11L210.426 232.85C211.076 232.182 211.598 231.625 211.99 231.18C212.389 230.729 212.676 230.318 212.852 229.949C213.033 229.58 213.124 229.185 213.124 228.763C213.124 228.253 212.98 227.872 212.693 227.62C212.412 227.362 212.034 227.233 211.56 227.233C211.062 227.233 210.578 227.348 210.109 227.576C209.641 227.805 209.151 228.13 208.642 228.552L207.165 226.803C207.534 226.486 207.924 226.188 208.334 225.906C208.75 225.625 209.23 225.399 209.775 225.229C210.326 225.054 210.985 224.966 211.753 224.966C212.597 224.966 213.32 225.118 213.924 225.423C214.533 225.728 215.002 226.144 215.33 226.671C215.658 227.192 215.822 227.784 215.822 228.446C215.822 229.155 215.682 229.803 215.4 230.389C215.119 230.975 214.709 231.555 214.17 232.129C213.637 232.703 212.992 233.339 212.236 234.036L210.584 235.592V235.715H216.183V238ZM217.413 232.542C217.413 231.804 217.466 231.074 217.571 230.354C217.683 229.627 217.873 228.944 218.143 228.306C218.412 227.661 218.79 227.093 219.276 226.601C219.763 226.103 220.381 225.713 221.131 225.432C221.881 225.145 222.789 225.001 223.855 225.001C224.107 225.001 224.4 225.013 224.734 225.036C225.074 225.054 225.355 225.086 225.578 225.133V227.304C225.344 227.251 225.092 227.21 224.822 227.181C224.559 227.146 224.295 227.128 224.031 227.128C222.965 227.128 222.139 227.298 221.553 227.638C220.973 227.978 220.562 228.449 220.322 229.053C220.088 229.65 219.95 230.348 219.909 231.145H220.023C220.188 230.857 220.393 230.603 220.639 230.38C220.891 230.157 221.195 229.981 221.553 229.853C221.91 229.718 222.329 229.65 222.81 229.65C223.56 229.65 224.21 229.812 224.761 230.134C225.312 230.45 225.736 230.91 226.035 231.514C226.334 232.117 226.483 232.853 226.483 233.72C226.483 234.646 226.305 235.442 225.947 236.11C225.59 236.778 225.083 237.291 224.427 237.648C223.776 238 223.003 238.176 222.106 238.176C221.45 238.176 220.838 238.064 220.27 237.842C219.701 237.613 219.203 237.268 218.775 236.805C218.348 236.342 218.014 235.759 217.773 235.056C217.533 234.347 217.413 233.509 217.413 232.542ZM222.054 236.005C222.587 236.005 223.021 235.823 223.354 235.46C223.688 235.097 223.855 234.528 223.855 233.755C223.855 233.128 223.709 232.636 223.416 232.278C223.129 231.915 222.692 231.733 222.106 231.733C221.708 231.733 221.356 231.824 221.052 232.006C220.753 232.182 220.521 232.407 220.357 232.683C220.193 232.952 220.111 233.23 220.111 233.518C220.111 233.816 220.152 234.112 220.234 234.405C220.316 234.698 220.439 234.965 220.604 235.205C220.768 235.445 220.97 235.639 221.21 235.785C221.456 235.932 221.737 236.005 222.054 236.005ZM231.757 228.174H234.692L236.547 233.702C236.605 233.878 236.655 234.057 236.696 234.238C236.737 234.42 236.772 234.607 236.802 234.801C236.831 234.994 236.854 235.196 236.872 235.407H236.925C236.96 235.091 237.007 234.795 237.065 234.52C237.13 234.244 237.209 233.972 237.303 233.702L239.122 228.174H241.996L237.839 239.257C237.587 239.937 237.259 240.502 236.854 240.953C236.45 241.41 235.984 241.753 235.457 241.981C234.936 242.21 234.361 242.324 233.734 242.324C233.43 242.324 233.166 242.307 232.943 242.271C232.721 242.242 232.53 242.21 232.372 242.175V240.048C232.495 240.077 232.65 240.104 232.838 240.127C233.025 240.15 233.222 240.162 233.427 240.162C233.802 240.162 234.124 240.083 234.394 239.925C234.663 239.767 234.889 239.553 235.07 239.283C235.252 239.02 235.396 238.729 235.501 238.413L235.659 237.93L231.757 228.174ZM256.384 238H247.401V236.11L250.627 232.85C251.277 232.182 251.799 231.625 252.191 231.18C252.59 230.729 252.877 230.318 253.053 229.949C253.234 229.58 253.325 229.185 253.325 228.763C253.325 228.253 253.182 227.872 252.895 227.62C252.613 227.362 252.235 227.233 251.761 227.233C251.263 227.233 250.779 227.348 250.311 227.576C249.842 227.805 249.353 228.13 248.843 228.552L247.366 226.803C247.735 226.486 248.125 226.188 248.535 225.906C248.951 225.625 249.432 225.399 249.977 225.229C250.527 225.054 251.187 224.966 251.954 224.966C252.798 224.966 253.521 225.118 254.125 225.423C254.734 225.728 255.203 226.144 255.531 226.671C255.859 227.192 256.023 227.784 256.023 228.446C256.023 229.155 255.883 229.803 255.602 230.389C255.32 230.975 254.91 231.555 254.371 232.129C253.838 232.703 253.193 233.339 252.438 234.036L250.785 235.592V235.715H256.384V238ZM258.977 238L263.802 227.436H257.465V225.15H266.685V226.855L261.824 238H258.977ZM276.476 238.176C275.38 238.176 274.486 237.748 273.795 236.893C273.109 236.031 272.767 234.769 272.767 233.104C272.767 231.423 273.115 230.151 273.812 229.29C274.51 228.423 275.421 227.989 276.546 227.989C277.015 227.989 277.428 228.054 277.785 228.183C278.143 228.312 278.45 228.484 278.708 228.701C278.972 228.918 279.194 229.161 279.376 229.431H279.464C279.429 229.243 279.385 228.968 279.332 228.604C279.285 228.235 279.262 227.857 279.262 227.471V224.324H281.951V238H279.895L279.376 236.726H279.262C279.092 236.995 278.878 237.241 278.62 237.464C278.368 237.681 278.066 237.854 277.715 237.982C277.363 238.111 276.95 238.176 276.476 238.176ZM277.416 236.04C278.148 236.04 278.664 235.823 278.963 235.39C279.268 234.95 279.429 234.291 279.446 233.412V233.122C279.446 232.167 279.3 231.438 279.007 230.934C278.714 230.424 278.169 230.169 277.372 230.169C276.78 230.169 276.317 230.424 275.983 230.934C275.649 231.443 275.482 232.179 275.482 233.14C275.482 234.101 275.649 234.824 275.983 235.311C276.323 235.797 276.801 236.04 277.416 236.04ZM288.807 227.989C289.715 227.989 290.497 228.165 291.153 228.517C291.81 228.862 292.316 229.366 292.674 230.028C293.031 230.69 293.21 231.499 293.21 232.454V233.755H286.873C286.902 234.511 287.128 235.105 287.55 235.539C287.978 235.967 288.569 236.181 289.325 236.181C289.952 236.181 290.526 236.116 291.048 235.987C291.569 235.858 292.105 235.665 292.656 235.407V237.481C292.17 237.722 291.66 237.897 291.127 238.009C290.6 238.12 289.958 238.176 289.202 238.176C288.218 238.176 287.345 237.994 286.583 237.631C285.827 237.268 285.232 236.714 284.799 235.97C284.371 235.226 284.157 234.288 284.157 233.157C284.157 232.009 284.351 231.054 284.737 230.292C285.13 229.524 285.675 228.95 286.372 228.569C287.069 228.183 287.881 227.989 288.807 227.989ZM288.824 229.896C288.303 229.896 287.869 230.063 287.523 230.397C287.184 230.731 286.987 231.256 286.935 231.971H290.696C290.69 231.572 290.617 231.218 290.477 230.907C290.342 230.597 290.137 230.351 289.861 230.169C289.592 229.987 289.246 229.896 288.824 229.896ZM308.995 233.069C308.995 233.89 308.884 234.616 308.661 235.249C308.444 235.882 308.125 236.418 307.703 236.857C307.287 237.291 306.783 237.619 306.191 237.842C305.605 238.064 304.943 238.176 304.205 238.176C303.514 238.176 302.878 238.064 302.298 237.842C301.724 237.619 301.223 237.291 300.795 236.857C300.373 236.418 300.045 235.882 299.811 235.249C299.582 234.616 299.468 233.89 299.468 233.069C299.468 231.979 299.661 231.057 300.048 230.301C300.435 229.545 300.985 228.971 301.7 228.578C302.415 228.186 303.268 227.989 304.258 227.989C305.178 227.989 305.992 228.186 306.701 228.578C307.416 228.971 307.976 229.545 308.38 230.301C308.79 231.057 308.995 231.979 308.995 233.069ZM302.201 233.069C302.201 233.714 302.271 234.256 302.412 234.695C302.553 235.135 302.772 235.466 303.071 235.688C303.37 235.911 303.76 236.022 304.24 236.022C304.715 236.022 305.099 235.911 305.392 235.688C305.69 235.466 305.907 235.135 306.042 234.695C306.183 234.256 306.253 233.714 306.253 233.069C306.253 232.419 306.183 231.88 306.042 231.452C305.907 231.019 305.69 230.693 305.392 230.477C305.093 230.26 304.703 230.151 304.223 230.151C303.514 230.151 302.998 230.395 302.676 230.881C302.359 231.367 302.201 232.097 302.201 233.069ZM315.2 238.176C314.228 238.176 313.398 238 312.713 237.648C312.027 237.291 311.506 236.74 311.148 235.996C310.791 235.252 310.612 234.3 310.612 233.14C310.612 231.938 310.814 230.96 311.219 230.204C311.629 229.442 312.194 228.883 312.915 228.525C313.642 228.168 314.482 227.989 315.438 227.989C316.117 227.989 316.703 228.057 317.195 228.191C317.693 228.32 318.127 228.476 318.496 228.657L317.705 230.731C317.283 230.562 316.891 230.424 316.527 230.318C316.164 230.207 315.801 230.151 315.438 230.151C314.969 230.151 314.579 230.263 314.269 230.485C313.958 230.702 313.727 231.03 313.574 231.47C313.422 231.909 313.346 232.46 313.346 233.122C313.346 233.772 313.428 234.312 313.592 234.739C313.756 235.167 313.993 235.486 314.304 235.697C314.614 235.902 314.992 236.005 315.438 236.005C315.994 236.005 316.489 235.932 316.923 235.785C317.356 235.633 317.778 235.422 318.188 235.152V237.446C317.778 237.704 317.348 237.889 316.896 238C316.451 238.117 315.886 238.176 315.2 238.176ZM324.613 236.04C324.906 236.04 325.19 236.011 325.466 235.952C325.747 235.894 326.025 235.82 326.301 235.732V237.728C326.014 237.856 325.656 237.962 325.229 238.044C324.807 238.132 324.344 238.176 323.84 238.176C323.254 238.176 322.727 238.082 322.258 237.895C321.795 237.701 321.429 237.37 321.159 236.901C320.896 236.427 320.764 235.768 320.764 234.924V230.187H319.48V229.053L320.957 228.156L321.73 226.082H323.444V228.174H326.195V230.187H323.444V234.924C323.444 235.299 323.55 235.58 323.761 235.768C323.978 235.949 324.262 236.04 324.613 236.04ZM337.313 228.174V238H335.257L334.896 236.743H334.756C334.545 237.077 334.281 237.35 333.965 237.561C333.648 237.771 333.3 237.927 332.919 238.026C332.538 238.126 332.143 238.176 331.732 238.176C331.029 238.176 330.417 238.053 329.896 237.807C329.374 237.555 328.967 237.165 328.674 236.638C328.387 236.11 328.243 235.425 328.243 234.581V228.174H330.924V233.913C330.924 234.616 331.05 235.146 331.302 235.504C331.554 235.861 331.955 236.04 332.506 236.04C333.051 236.04 333.479 235.917 333.789 235.671C334.1 235.419 334.316 235.053 334.439 234.572C334.568 234.086 334.633 233.494 334.633 232.797V228.174H337.313ZM342.807 224.324V227.506C342.807 227.875 342.795 228.241 342.771 228.604C342.754 228.968 342.73 229.249 342.701 229.448H342.807C343.064 229.044 343.416 228.701 343.861 228.42C344.307 228.133 344.884 227.989 345.593 227.989C346.694 227.989 347.588 228.42 348.273 229.281C348.959 230.143 349.302 231.405 349.302 233.069C349.302 234.188 349.144 235.129 348.827 235.891C348.511 236.646 348.068 237.218 347.5 237.604C346.932 237.985 346.272 238.176 345.522 238.176C344.802 238.176 344.233 238.047 343.817 237.789C343.401 237.531 343.064 237.241 342.807 236.919H342.622L342.174 238H340.126V224.324H342.807ZM344.731 230.134C344.263 230.134 343.891 230.23 343.615 230.424C343.34 230.617 343.138 230.907 343.009 231.294C342.886 231.681 342.818 232.17 342.807 232.762V233.052C342.807 234.007 342.947 234.739 343.229 235.249C343.51 235.753 344.022 236.005 344.767 236.005C345.317 236.005 345.754 235.75 346.076 235.24C346.404 234.73 346.568 233.995 346.568 233.034C346.568 232.073 346.404 231.35 346.076 230.863C345.748 230.377 345.3 230.134 344.731 230.134ZM357.001 227.989C357.136 227.989 357.291 227.998 357.467 228.016C357.648 228.027 357.795 228.045 357.906 228.068L357.704 230.582C357.616 230.553 357.49 230.532 357.326 230.521C357.168 230.503 357.03 230.494 356.913 230.494C356.567 230.494 356.23 230.538 355.902 230.626C355.58 230.714 355.29 230.857 355.032 231.057C354.774 231.25 354.569 231.508 354.417 231.83C354.271 232.146 354.197 232.536 354.197 232.999V238H351.517V228.174H353.547L353.942 229.826H354.074C354.268 229.492 354.508 229.188 354.795 228.912C355.088 228.631 355.419 228.408 355.788 228.244C356.163 228.074 356.567 227.989 357.001 227.989ZM363.742 227.989C364.65 227.989 365.433 228.165 366.089 228.517C366.745 228.862 367.252 229.366 367.609 230.028C367.967 230.69 368.146 231.499 368.146 232.454V233.755H361.809C361.838 234.511 362.063 235.105 362.485 235.539C362.913 235.967 363.505 236.181 364.261 236.181C364.888 236.181 365.462 236.116 365.983 235.987C366.505 235.858 367.041 235.665 367.592 235.407V237.481C367.105 237.722 366.596 237.897 366.062 238.009C365.535 238.12 364.894 238.176 364.138 238.176C363.153 238.176 362.28 237.994 361.519 237.631C360.763 237.268 360.168 236.714 359.734 235.97C359.307 235.226 359.093 234.288 359.093 233.157C359.093 232.009 359.286 231.054 359.673 230.292C360.065 229.524 360.61 228.95 361.308 228.569C362.005 228.183 362.816 227.989 363.742 227.989ZM363.76 229.896C363.238 229.896 362.805 230.063 362.459 230.397C362.119 230.731 361.923 231.256 361.87 231.971H365.632C365.626 231.572 365.553 231.218 365.412 230.907C365.277 230.597 365.072 230.351 364.797 230.169C364.527 229.987 364.182 229.896 363.76 229.896ZM383.228 231.575C383.228 232.612 383.146 233.538 382.981 234.353C382.823 235.167 382.565 235.858 382.208 236.427C381.856 236.995 381.394 237.429 380.819 237.728C380.245 238.026 379.548 238.176 378.728 238.176C377.696 238.176 376.85 237.915 376.188 237.394C375.525 236.866 375.036 236.11 374.72 235.126C374.403 234.136 374.245 232.952 374.245 231.575C374.245 230.187 374.389 229 374.676 228.016C374.969 227.025 375.443 226.267 376.1 225.739C376.756 225.212 377.632 224.948 378.728 224.948C379.753 224.948 380.597 225.212 381.259 225.739C381.927 226.261 382.422 227.017 382.744 228.007C383.066 228.991 383.228 230.181 383.228 231.575ZM376.943 231.575C376.943 232.554 376.996 233.371 377.102 234.027C377.213 234.678 377.397 235.167 377.655 235.495C377.913 235.823 378.271 235.987 378.728 235.987C379.179 235.987 379.533 235.826 379.791 235.504C380.055 235.176 380.242 234.687 380.354 234.036C380.465 233.38 380.521 232.56 380.521 231.575C380.521 230.597 380.465 229.779 380.354 229.123C380.242 228.467 380.055 227.975 379.791 227.646C379.533 227.312 379.179 227.146 378.728 227.146C378.271 227.146 377.913 227.312 377.655 227.646C377.397 227.975 377.213 228.467 377.102 229.123C376.996 229.779 376.943 230.597 376.943 231.575ZM393.546 230.635C393.546 231.373 393.49 232.105 393.379 232.832C393.273 233.559 393.086 234.244 392.816 234.889C392.547 235.527 392.169 236.096 391.683 236.594C391.196 237.086 390.578 237.473 389.828 237.754C389.078 238.035 388.17 238.176 387.104 238.176C386.852 238.176 386.556 238.164 386.216 238.141C385.876 238.123 385.595 238.094 385.372 238.053V235.873C385.606 235.932 385.855 235.979 386.119 236.014C386.383 236.043 386.649 236.058 386.919 236.058C387.991 236.058 388.817 235.888 389.397 235.548C389.983 235.208 390.394 234.736 390.628 234.133C390.868 233.529 391.006 232.832 391.041 232.041H390.936C390.766 232.322 390.563 232.577 390.329 232.806C390.101 233.028 389.808 233.207 389.45 233.342C389.093 233.471 388.639 233.535 388.088 233.535C387.355 233.535 386.717 233.377 386.172 233.061C385.633 232.738 385.214 232.275 384.915 231.672C384.622 231.062 384.476 230.327 384.476 229.466C384.476 228.534 384.651 227.737 385.003 227.075C385.36 226.407 385.867 225.895 386.523 225.537C387.18 225.18 387.953 225.001 388.844 225.001C389.5 225.001 390.112 225.115 390.681 225.344C391.249 225.566 391.747 225.909 392.175 226.372C392.608 226.835 392.945 227.421 393.186 228.13C393.426 228.839 393.546 229.674 393.546 230.635ZM388.896 227.181C388.369 227.181 387.938 227.362 387.604 227.726C387.271 228.089 387.104 228.657 387.104 229.431C387.104 230.052 387.247 230.544 387.534 230.907C387.821 231.271 388.258 231.452 388.844 231.452C389.248 231.452 389.6 231.364 389.898 231.188C390.197 231.007 390.429 230.781 390.593 230.512C390.763 230.236 390.848 229.955 390.848 229.668C390.848 229.369 390.807 229.073 390.725 228.78C390.643 228.487 390.52 228.221 390.355 227.98C390.191 227.74 389.986 227.547 389.74 227.4C389.5 227.254 389.219 227.181 388.896 227.181ZM395.225 236.743C395.225 236.192 395.374 235.806 395.673 235.583C395.978 235.36 396.344 235.249 396.771 235.249C397.188 235.249 397.545 235.36 397.844 235.583C398.148 235.806 398.301 236.192 398.301 236.743C398.301 237.271 398.148 237.651 397.844 237.886C397.545 238.12 397.188 238.237 396.771 238.237C396.344 238.237 395.978 238.12 395.673 237.886C395.374 237.651 395.225 237.271 395.225 236.743ZM395.225 229.483C395.225 228.933 395.374 228.546 395.673 228.323C395.978 228.101 396.344 227.989 396.771 227.989C397.188 227.989 397.545 228.101 397.844 228.323C398.148 228.546 398.301 228.933 398.301 229.483C398.301 230.017 398.148 230.4 397.844 230.635C397.545 230.863 397.188 230.978 396.771 230.978C396.344 230.978 395.978 230.863 395.673 230.635C395.374 230.4 395.225 230.017 395.225 229.483ZM408.962 231.575C408.962 232.612 408.88 233.538 408.716 234.353C408.558 235.167 408.3 235.858 407.942 236.427C407.591 236.995 407.128 237.429 406.554 237.728C405.979 238.026 405.282 238.176 404.462 238.176C403.431 238.176 402.584 237.915 401.922 237.394C401.26 236.866 400.771 236.11 400.454 235.126C400.138 234.136 399.979 232.952 399.979 231.575C399.979 230.187 400.123 229 400.41 228.016C400.703 227.025 401.178 226.267 401.834 225.739C402.49 225.212 403.366 224.948 404.462 224.948C405.487 224.948 406.331 225.212 406.993 225.739C407.661 226.261 408.156 227.017 408.479 228.007C408.801 228.991 408.962 230.181 408.962 231.575ZM402.678 231.575C402.678 232.554 402.73 233.371 402.836 234.027C402.947 234.678 403.132 235.167 403.39 235.495C403.647 235.823 404.005 235.987 404.462 235.987C404.913 235.987 405.268 235.826 405.525 235.504C405.789 235.176 405.977 234.687 406.088 234.036C406.199 233.38 406.255 232.56 406.255 231.575C406.255 230.597 406.199 229.779 406.088 229.123C405.977 228.467 405.789 227.975 405.525 227.646C405.268 227.312 404.913 227.146 404.462 227.146C404.005 227.146 403.647 227.312 403.39 227.646C403.132 227.975 402.947 228.467 402.836 229.123C402.73 229.779 402.678 230.597 402.678 231.575ZM419.263 231.575C419.263 232.612 419.181 233.538 419.017 234.353C418.858 235.167 418.601 235.858 418.243 236.427C417.892 236.995 417.429 237.429 416.854 237.728C416.28 238.026 415.583 238.176 414.763 238.176C413.731 238.176 412.885 237.915 412.223 237.394C411.561 236.866 411.071 236.11 410.755 235.126C410.438 234.136 410.28 232.952 410.28 231.575C410.28 230.187 410.424 229 410.711 228.016C411.004 227.025 411.479 226.267 412.135 225.739C412.791 225.212 413.667 224.948 414.763 224.948C415.788 224.948 416.632 225.212 417.294 225.739C417.962 226.261 418.457 227.017 418.779 228.007C419.102 228.991 419.263 230.181 419.263 231.575ZM412.979 231.575C412.979 232.554 413.031 233.371 413.137 234.027C413.248 234.678 413.433 235.167 413.69 235.495C413.948 235.823 414.306 235.987 414.763 235.987C415.214 235.987 415.568 235.826 415.826 235.504C416.09 235.176 416.277 234.687 416.389 234.036C416.5 233.38 416.556 232.56 416.556 231.575C416.556 230.597 416.5 229.779 416.389 229.123C416.277 228.467 416.09 227.975 415.826 227.646C415.568 227.312 415.214 227.146 414.763 227.146C414.306 227.146 413.948 227.312 413.69 227.646C413.433 227.975 413.248 228.467 413.137 229.123C413.031 229.779 412.979 230.597 412.979 231.575Z" fill="white"/>
<path d="M439.444 80.6187C433.163 79.7266 431.407 77.9702 430.515 71.6898C430.419 71.013 429.443 71.013 429.347 71.6898C428.455 77.9702 426.698 79.7266 420.418 80.6187C419.741 80.7147 419.741 81.6905 420.418 81.7865C426.698 82.6786 428.455 84.435 429.347 90.7154C429.443 91.3922 430.419 91.3922 430.515 90.7154C431.407 84.435 433.163 82.6786 439.444 81.7865C440.12 81.6905 440.12 80.7147 439.444 80.6187Z" fill="white"/>
<path d="M445.615 63.1497C440.858 62.4729 439.527 61.144 438.85 56.3845C438.777 55.8718 438.039 55.8718 437.966 56.3845C437.289 61.1424 435.96 62.4729 431.201 63.1497C430.688 63.2225 430.688 63.9613 431.201 64.0341C435.959 64.7109 437.289 66.0398 437.966 70.7992C438.039 71.3119 438.777 71.3119 438.85 70.7992C439.527 66.0413 440.856 64.7109 445.615 64.0341C446.128 63.9613 446.128 63.2225 445.615 63.1497Z" fill="white"/>
<path d="M426.41 65.6185C424.027 65.2793 423.361 64.6133 423.023 62.2313C422.986 61.9742 422.616 61.9742 422.58 62.2313C422.241 64.6149 421.575 65.2809 419.193 65.6185C418.936 65.6557 418.936 66.0258 419.193 66.0615C421.576 66.4007 422.242 67.0666 422.58 69.4487C422.617 69.7058 422.987 69.7058 423.023 69.4487C423.362 67.0651 424.028 66.3991 426.41 66.0615C426.667 66.0243 426.667 65.6541 426.41 65.6185Z" fill="white"/>
<rect x="484" y="130" width="100" height="30" rx="15" fill="url(#paint2_linear_336_333)"/>
<path d="M445.432 184.33C446.855 185.064 447.942 186.31 449.15 187.354C451.138 189.18 453.091 191.053 455.011 192.958C459.448 197.35 463.771 201.87 467.967 206.517C471.011 209.989 474.078 213.459 476.621 217.365C479.222 221.376 481.789 225.47 483.539 229.995C484.479 232.632 485.122 235.387 485.571 238.172C486.089 241.173 486.349 244.23 486.122 247.296C485.664 252.373 484.577 257.424 482.789 262.206C481.843 264.665 480.448 266.905 479.258 269.244C478.512 270.797 477.827 271.94 477.572 272.974C477.354 273.882 477.397 273.377 477.381 274.199C477.396 274.269 477.414 274.336 477.43 274.392C477.47 274.477 477.516 274.557 477.568 274.633C477.601 274.675 477.638 274.721 477.678 274.767C477.732 274.831 477.794 274.893 477.846 274.942C477.924 274.994 478.004 275.039 478.085 275.08C478.828 275.312 478.427 275.193 479.087 275.27C480.13 275.338 481.182 275.279 482.226 275.144C483.46 274.959 484.68 274.66 485.873 274.269C487.231 273.832 488.548 273.256 489.884 272.743C492.021 271.801 496.864 269.515 499.849 267.894C503.761 265.715 507.618 263.432 511.461 261.122C518.606 256.827 525.65 252.353 532.652 247.803C540.106 242.987 547.55 238.128 555.299 233.862C558.512 232.079 561.821 230.467 565.248 229.217C567.163 228.52 569.163 228.189 571.15 227.85C573.926 227.364 576.896 227.091 579.482 228.353C581.783 229.505 583.928 231.24 584.95 233.755C586.874 238.049 586.255 243.031 585.44 247.612C583.493 256.754 578.565 264.879 573.32 272.402C568.013 279.923 562.094 286.941 556.182 293.947C550.032 301.405 544.537 307.516 540.113 315.88C539.231 317.613 538.735 318.794 538.294 320.062C537.97 320.987 537.686 321.93 537.543 322.9C537.531 323.02 537.514 323.167 537.504 323.248C537.46 323.677 537.442 324.105 537.432 324.536C537.423 324.806 537.42 325.075 537.422 325.344C537.423 325.476 537.424 325.612 537.429 325.744C537.434 325.887 537.444 326.032 537.457 326.175C537.465 326.239 537.471 326.302 537.483 326.364C537.511 326.585 537.571 326.798 537.626 327.011C537.66 327.134 537.702 327.255 537.744 327.375C537.799 327.506 537.856 327.637 537.918 327.765C537.968 327.861 538.024 327.954 538.081 328.043C538.137 328.11 538.196 328.176 538.261 328.234C538.315 328.286 538.372 328.332 538.429 328.378C538.684 328.565 538.951 328.733 539.204 328.917C541.573 330.756 544.406 330.716 547.314 329.816C551.609 328.422 556.23 324.88 559.767 321.954C561.771 320.269 563.745 318.54 565.645 316.726C566.429 315.986 567.113 315.139 567.925 314.43C568.273 314.12 568.627 313.817 568.99 313.526C569.307 313.284 569.756 312.971 569.729 312.528C569.883 312.531 569.982 312.666 570.027 312.806C570.102 313.222 570.002 313.653 569.877 314.053C569.411 315.558 568.431 316.802 567.319 317.856C566.229 318.957 565.06 319.964 563.924 321.012C559.735 324.62 555.488 328.334 550.545 330.727C547.382 332.274 543.713 333.203 540.359 332.088C539.552 331.818 538.8 331.408 538.099 330.915C537.522 330.523 536.889 330.18 536.424 329.637C535.09 327.976 535.02 325.666 535.146 323.563C535.376 320.42 536.718 317.486 538.075 314.69C541.118 308.777 545.197 303.531 549.342 298.42C557.6 288.312 566.312 278.661 573.132 268.466C577.79 261.44 581.489 254.921 583.188 247.023C583.567 245.097 583.583 244.687 583.77 242.675C583.913 241.254 583.953 239.82 583.791 238.408C583.44 235.691 582.406 232.893 579.787 231.353C577.318 229.63 575.263 229.627 571.764 230.122C570.976 230.252 570.186 230.384 569.397 230.516C568.79 230.631 568.184 230.764 567.583 230.912C566.279 231.232 565.011 231.703 563.758 232.206C554.458 236.162 543.155 243.643 533.671 249.734C526.541 254.362 519.366 258.914 512.087 263.274C506.116 266.858 500.125 270.431 493.825 273.32C489.728 275.167 485.55 277.16 481.083 277.517C479.594 277.588 477.959 277.737 476.651 276.915C474.713 275.512 474.928 273.364 475.799 271.267C476.403 269.751 477.172 268.313 477.909 266.862C478.775 265.17 479.719 263.514 480.445 261.751C482.071 257.475 483.329 251.75 483.631 248.287C484.023 244.644 483.752 242.048 483.268 238.998C482.825 236.212 482.19 233.457 481.262 230.815C481.055 230.315 480.846 229.813 480.638 229.315C480.032 227.992 479.356 226.706 478.67 225.428C477.343 223.054 475.895 220.762 474.417 218.489C472.521 215.558 469.623 212.085 466.813 208.764C463.069 204.262 459.222 199.851 455.146 195.677C452.236 192.67 449.216 189.778 446.122 186.978C445.063 186.093 444.232 184.93 443.647 183.648C444.261 183.807 444.853 184.044 445.42 184.331L445.432 184.33Z" fill="url(#paint3_linear_336_333)"/>
<g clip-path="url(#clip1_336_333)">
<path d="M443.839 182.693C446.22 182.506 449.124 182.446 450.705 182.33C452.091 182.245 453.478 182.175 454.863 182.107C455.394 182.115 455.943 181.966 456.46 182.101C457.749 182.608 457.11 184.367 456.004 184.198C455.991 184.198 455.978 184.196 455.965 184.196C455.186 184.232 454.408 184.278 453.631 184.312C451.122 184.446 447.911 184.628 444.709 184.768C444.706 184.807 444.703 184.845 444.701 184.883C444.656 185.658 444.682 186.436 444.707 187.211C444.76 189.425 445.207 193.413 445.439 196.513C445.529 197.791 445.537 198.189 445.549 198.841C445.532 199.065 445.545 199.295 445.524 199.518C445.526 199.69 445.482 199.862 445.388 200.005C445.155 200.378 444.63 200.485 444.282 200.233C444.111 200.099 443.979 199.923 443.946 199.696C443.946 199.701 443.95 199.711 443.956 199.727C443.931 199.634 443.913 199.538 443.889 199.444C443.765 198.943 443.687 198.433 443.614 197.921C443.338 195.83 443.14 193.728 442.942 191.625C442.77 189.869 442.665 188.107 442.62 186.341C442.651 185.097 442.344 183.118 443.84 182.696L443.839 182.693Z" fill="url(#paint4_linear_336_333)"/>
</g>
<circle cx="87.5" cy="115.5" r="14.5" fill="#D9D9D9"/>
<rect x="-21.7465" y="266.917" width="170.507" height="170.507" rx="15" transform="rotate(-120 -21.7465 266.917)" fill="url(#paint5_radial_336_333)"/>
</g>
<defs>
<radialGradient id="paint0_radial_336_333" cx="0" cy="0" r="1" gradientUnits="userSpaceOnUse" gradientTransform="rotate(26.1881) scale(679.779 538.41)">
<stop stop-color="#8C1D31"/>
<stop offset="0.495" stop-color="#661020"/>
<stop offset="1" stop-color="#410813"/>
</radialGradient>
<radialGradient id="paint1_radial_336_333" cx="0" cy="0" r="1" gradientUnits="userSpaceOnUse" gradientTransform="translate(297 179.825) scale(120 39)">
<stop stop-color="white"/>
<stop offset="1" stop-color="#8C1D31"/>
</radialGradient>
<linearGradient id="paint2_linear_336_333" x1="484" y1="145" x2="584" y2="145" gradientUnits="userSpaceOnUse">
<stop stop-color="#661020"/>
<stop offset="1" stop-color="#8C1D31"/>
</linearGradient>
<linearGradient id="paint3_linear_336_333" x1="488.201" y1="318.13" x2="518.837" y2="203.795" gradientUnits="userSpaceOnUse">
<stop stop-color="#999999" stop-opacity="0"/>
<stop offset="1" stop-color="white"/>
</linearGradient>
<linearGradient id="paint4_linear_336_333" x1="451.547" y1="191.975" x2="441.604" y2="185.42" gradientUnits="userSpaceOnUse">
<stop stop-color="#999999" stop-opacity="0"/>
<stop offset="1" stop-color="white"/>
</linearGradient>
<radialGradient id="paint5_radial_336_333" cx="0" cy="0" r="1" gradientUnits="userSpaceOnUse" gradientTransform="translate(-13.2451 306.775) rotate(0.579519) scale(117.546)">
<stop stop-color="#661020"/>
<stop offset="1" stop-color="#410813"/>
</radialGradient>
<clipPath id="clip0_336_333">
<rect width="610" height="300" fill="white"/>
</clipPath>
<clipPath id="clip1_336_333">
<rect width="11.9171" height="21.8866" fill="white" transform="matrix(-0.81617 -0.577812 -0.550395 0.834904 457.57 182.837)"/>
</clipPath>
</defs>
</svg>
