<?xml version="1.0" encoding="utf-8"?>
<!-- Generator: Adobe Illustrator 28.0.0, SVG Export Plug-In . SVG Version: 6.00 Build 0)  -->
<svg version="1.1" id="Capa_1" xmlns="http://www.w3.org/2000/svg" xmlns:xlink="http://www.w3.org/1999/xlink" x="0px" y="0px"
	 viewBox="0 0 1920 1080" style="enable-background:new 0 0 1920 1080;" xml:space="preserve">
<style type="text/css">
	.st0{fill:#661020;}
</style>
<g>
	<g>
		<g>
			<path class="st0" d="M164,770.2c0,19.9-19.2,26.8-46.7,26c-28.7-1-40.4-14-40.4-21.9V730c0-5.9-4.9-9.4-13.7-9.4v-2.4h54.4v2.4
				c-8.8,0-13.9,3.5-13.9,9.4v40.4c0,8.3,2.6,17.3,15.4,20c11.2,2.1,38.2,1.6,38.2-19.9V730c0-5.9-4.6-9.4-13.3-9.4v-2.4h33.4v2.4
				c-8.8,0-13.5,3.5-13.5,9.4L164,770.2L164,770.2z"/>
			<path class="st0" d="M293.8,795.4L220,735.2h-0.4v47.2c0,5.9,4.8,9.5,13.5,9.5v2.4h-33.4v-2.4c8.8,0,13.5-3.7,13.5-9.5v-52.7
				l-6.3-4.9c-2.3-2-4-4.2-8.5-4.2v-2.4h35.2l58.1,48.1h0.2V730c0-5.9-4.6-9.4-13.3-9.4v-2.4h33.5v2.4c-8.8,0-13.4,3.5-13.4,9.4
				v65.3H293.8z"/>
			<path class="st0" d="M375.4,782.4c0,5.9,5.2,9.6,16,9.6v2.4h-58.6v-2.4c11,0,16-3.7,16-9.6v-52.2c0-5.8-5-9.5-16-9.5v-2.3h58.6
				v2.3c-10.8,0-16,3.6-16,9.5V782.4z"/>
			<path class="st0" d="M503.7,729.7c5.5-9.3-4.3-9.1-12.3-9.1v-2.4h34.7v2.4c-5.6,0-10.2,1.3-13.3,6.7L472,796.2h-3.6l-42.7-69.3
				c-4-6.2-7.8-6.4-12.8-6.2v-2.4h55.5v2.4c-15.2,0-16.4,3.4-14.5,6.5l25.6,43.5L503.7,729.7z"/>
			<path class="st0" d="M588.1,783.2c0,5.7,1.1,7.3,9.5,7.8c24,1.3,37.1-3.6,49-19.8h4.5l-7.5,23.2h-96.1v-2.4
				c8.8,0,13.7-3.7,13.7-9.5V730c0-5.9-4.9-9.4-13.7-9.4v-2.4h94.9v23.1h-3.3c-1.7-3.8-3-18.8-29.4-19.3l-14.4-0.2
				c-6.1-0.1-7.3,0.9-7.3,6.6v25.4c19.3-0.6,22.3-2.5,27.8-16.6h3.5v37.1h-3.5c-5.4-14.2-8.5-16-27.8-16.7V783.2z"/>
			<path class="st0" d="M753.4,794.4h33.1v-2.4c-2.1,0-3.8,0.5-8.5-4.1l-31.8-31c10.1-1.7,17.7-4.4,23.3-10c6.8-7,2.5-16.1-4.1-20.8
				c-9.3-6.1-25.8-7.8-39.1-7.8H674v2.4c8.7,0,13.8,3.5,13.8,9.4v52.3c0,5.9-5.1,9.6-13.8,9.6v2.4h54.4v-2.4
				c-8.8,0-13.9-3.7-13.9-9.6v-23.5h4.3L753.4,794.4z M714.5,726.6c0-3,3.6-4.3,6.9-4.7c12.7-0.8,18.4,2.8,21.8,6.8
				c2.5,3.1,3.5,12.5,0.8,17.9c-5.1,10-21.2,8.6-29.5,8.7V726.6z"/>
			<path class="st0" d="M885.2,741.8h-3.3c-4.1-6-10.6-20.8-33.1-21c-14.8,0-17.9,8.3-17.9,11c0,4.8,3.5,10.5,21.9,14.9
				c25.9,6.1,37.1,15.1,37.1,25.7c0,8-5.9,23.6-42.2,23.6c-9.7,0-20.4-3.7-28.4-3.7c-2.2,0-2.8,1.6-3.3,3.7h-4v-27h3.9l3.5,7.8
				c2,4.4,13.2,15.9,28.7,15.9c21.7,0,22.9-9.7,22.9-12.2c0-6.4-5.5-9.8-32.9-18.1c-18.7-5.8-24.6-15.5-24.6-22.5
				c0-15.2,18.1-22.6,32.2-22.6c17.8,0,22.2,3.9,30.5,4.1c2.6,0,3.1-1.9,5.1-4.1h3.8V741.8z"/>
			<path class="st0" d="M957.6,782.4c0,5.9,4.9,9.6,15.9,9.6v2.4H915v-2.4c11,0,16-3.7,16-9.6v-52.2c0-5.8-5.1-9.5-16-9.5v-2.3h58.5
				v2.3c-11,0-15.9,3.6-15.9,9.5V782.4z"/>
			<path class="st0" d="M994.8,718.2v2.4c8.7,0,13.8,3.5,13.8,9.4v52.3c0,5.9-5.1,9.6-13.8,9.6v2.4h56c12,0,24-2.7,35.3-8.8
				c19.5-10.2,24.3-31.7,15.9-45.6c-10.3-16.8-32.1-21.7-55.2-21.7H994.8z M1035.4,728.8c0-6.3,0.3-7,7.2-7c9.6,0,16.4-0.3,24.6,6.2
				c12.7,10.4,13.1,34.4,6.2,48.1c-2.6,5.2-7.1,14.5-30.7,14.5c-6.8,0-7.2-0.6-7.2-6.8V728.8z"/>
			<path class="st0" d="M1183.5,718.2l-41.2,66.5c-3.8,6.2-8,7.2-12.4,7.2v2.4h33.6v-2.4c-11.7,0-15.4-3.8-11.9-9.6l5.9-10h38.4
				l8,12.7c3.5,5.9-7.3,6.8-14.5,6.8v2.4h53.7v-2.4c-2.4,0-8.3,0.4-11.8-5.1l-42.7-68.6H1183.5z M1159.9,768.1l16.2-27.6l17,27.6
				H1159.9z"/>
			<path class="st0" d="M1264.9,718.2v2.4c8.7,0,13.8,3.5,13.8,9.4v52.3c0,5.9-5.1,9.6-13.8,9.6v2.4h55.8c12,0,24.2-2.7,35.3-8.8
				c19.5-10.2,24.4-31.7,16-45.6c-10.5-16.8-32.1-21.7-55.3-21.7H1264.9z M1305.3,728.8c0-6.3,0.3-7,7.4-7c9.4,0,16.3-0.3,24.5,6.2
				c12.8,10.4,13.2,34.4,6.2,48.1c-2.5,5.2-7.1,14.5-30.6,14.5c-7,0-7.4-0.6-7.4-6.8V728.8z"/>
			<path class="st0" d="M1602,756.6c0-13.2-8.7-26-23.9-32.5c-11-4.6-22.9-6.8-34-6.8c-11.2,0-23,2.2-34.1,6.8
				c-15,6.5-23.8,19.4-23.8,32.5c0,13.1,8.8,26,23.8,32.4c11.1,4.6,22.9,7,34.1,7c11.1,0,23.1-2.3,34-7
				C1593.3,782.6,1602,769.7,1602,756.6 M1544,793.2c-3,0-6.5-0.4-10.2-1.7c-6.6-2.1-11.3-6.3-15.2-13.8c-2.6-4.7-4.2-12.6-4.2-21
				c0-8.3,1.7-16.3,4.2-21.1c3.9-7.6,8.6-11.8,15.2-13.9c3.8-1.2,7.2-1.7,10.2-1.7c2.9,0,6.6,0.5,10.2,1.7
				c6.7,2.1,11.4,6.3,15.3,13.9c2.4,4.8,4.2,12.7,4.2,21.1c0,8.4-1.8,16.2-4.2,21c-3.9,7.5-8.6,11.8-15.3,13.8
				C1550.6,792.7,1546.9,793.2,1544,793.2"/>
			<path class="st0" d="M1707,794.4h32.9v-2.4c-2,0-3.8,0.5-8.4-4.1l-31.9-31c10.3-1.7,17.7-4.4,23.4-10c6.6-7,2.6-16.1-4.2-20.8
				c-9.1-6.1-25.7-7.8-38.8-7.8h-52.6v2.4c8.7,0,13.8,3.5,13.8,9.4v52.3c0,5.9-5.1,9.6-13.8,9.6v2.4h54.2v-2.4
				c-8.6,0-13.6-3.7-13.6-9.6v-23.5h4.2L1707,794.4z M1668.1,726.6c0-3,3.4-4.3,6.9-4.7c12.6-0.8,18.4,2.8,21.8,6.8
				c2.3,3.1,3.4,12.5,0.8,17.9c-5.1,10-21.3,8.6-29.5,8.7V726.6z"/>
			<path class="st0" d="M1821.1,782.4c0,5.9,5,9.6,13.8,9.6v2.4h-54.2v-2.4c8.7,0,13.8-3.7,13.8-9.6v-60.6
				c-4.1,0.1-15.2-1.3-24.5,5.1c-8.2,5.7-7.9,11-8.8,14h-3.7v-22.6h100.5v22.6h-3.7c-0.7-3-0.6-8.4-8.9-14c-9.5-6.4-20.3-5-24.3-5.1
				V782.4z"/>
			<path class="st0" d="M709.2,886.8c0,19.4-18.7,26.2-45.4,25.3c-28-1-39.5-13.5-39.5-21.3v-43.3c0-5.6-4.8-9.2-13.4-9.2V836h53
				v2.3c-8.5,0-13.3,3.7-13.3,9.2V887c0,8.1,2.3,16.8,14.9,19.4c10.9,2.2,37.3,1.7,37.3-19.4v-39.5c0-5.6-4.7-9.2-13.1-9.2V836h32.5
				v2.3c-8.4,0-13.1,3.7-13.1,9.2V886.8z"/>
			<path class="st0" d="M773.7,902.5c0,5.1,4.2,5.6,7,5.6v2.2h-36.4v-2.2c3,0,7.1-0.4,7.1-5.6v-34.6c0-5.2-4.2-5.5-7.1-5.5v-2.3
				h29.4v9.4h0.4c2-2.8,8.1-10.5,19.6-10.5c7.9,0,16.6,2.6,13.7,11c-1.6,4.7-12.1,6.2-17.7,1.6c-2.9-2.6-3.1-4.8-9.2-2.8
				c-4.7,1.5-6.8,6.6-6.8,10.2V902.5z"/>
			<path class="st0" d="M903.5,900.9c0,5.4,4.3,4.5,8.2,5.4l0.2,2.3c-8.8,0.2-13.1,0.6-30.7,3.4v-7.8h-0.2c-3,3.2-10.3,8.7-25.4,7.8
				c-16.6-1.1-18.8-6.2-18.8-12.7v-31.4c0-5.2-4.1-5.5-7.1-5.5v-2.3H859v39.6c0,5.8,11.4,8.4,22.2,0.6v-32.5c0-5.2-4.1-5.5-7.1-5.5
				v-2.3h29.5V900.9z"/>
			<path class="st0" d="M985.3,916.7c14.8,0.1,12.4,4.8,8.7,8.8c-5.4,5.4-34.3,5.1-40.7,2.4c-12.6-5.4-3.9-10.3,0.8-11.5
				L985.3,916.7z M1008.3,861.3h-21.8c-7.3-3.2-30.8-4.4-43.8,3.9c-9,5.7-8.6,16.4-0.4,22.2c3.5,2.3,8.5,3.7,12.9,5.7
				c-4.9,1.7-12.8,4.1-16.2,7.6c-8,8.4,4.3,12.3,8.2,14.4c-14.5,1.7-16.2,10.5-6.7,14.7c11.3,5.1,39.7,3.6,48.7,1.8
				c9.7-1.8,16.6-5.7,18.4-11.6c4.3-14-12.9-15.9-23.3-16.1l-23.7-0.9c-5.4-0.3-8.4-4.2-4.6-6.6c1.7-1,3.7-2.4,6.2-2.4
				c7.2,0.4,14.9,0,22.1-1.3c5.8-0.8,15-4.7,17-11.6c2.3-7.6-4.6-12.2-6.3-14h13.2V861.3z M960.2,887.4c-1.1-1.6-6-17.6,1.3-22.9
				c2.4-1.8,10.2-5.5,15.7,1.1c3.6,4.2,3.3,18.9,0.5,22C974.1,891.7,964,892.3,960.2,887.4"/>
			<path class="st0" d="M1103.7,900.9c0,5.4,4.3,4.5,8.1,5.4l0.3,2.3c-8.7,0.2-13.1,0.6-30.7,3.4v-7.8h-0.4
				c-2.9,3.2-10.2,8.7-25.3,7.8c-16.6-1.1-18.7-6.2-18.7-12.7v-31.4c0-5.2-4.2-5.5-7.2-5.5v-2.3h29.2v39.6c0,5.8,11.4,8.4,22.4,0.6
				v-32.5c0-5.2-4.2-5.5-7.1-5.5v-2.3h29.4V900.9z"/>
			<path class="st0" d="M1200.6,873.1c0-3.3-2.1-7.1-8.1-10.3c-7.9-3.7-34.4-7.1-48.9,1.5c-7.1,4.3-5.9,9.9-3.2,12.4
				c4.4,3.7,14.6,3.3,18-1c2.7-3.6-0.2-5-2.5-7.6c-2.1-2.5-1.5-3.7,1.9-4.9c3.6-1.1,10.3-1.5,15.1,0c4.6,1.5,5.4,4.4,5.4,8v9
				c-12,2.4-24,5.2-28.7,6.8c-6,2.6-14.9,7.3-14.9,14.2c0,4.1,3.9,10.8,19.3,10.8c10.6,0,17.7-3.4,24-6.8c3,2.7,6.8,6.8,12.2,6.8
				c5.9,0.1,13.2-1.5,19.7-5.6l-1.3-2.6c-4.6,2.4-8.1,1.2-8.1-0.7V873.1z M1178.4,900c-3.4,3.4-9,4.7-12,4.7
				c-9.1,0-9.8-8.5-6.9-12.2c5.4-7.1,16-8.2,18.8-8.7V900z"/>
			<path class="st0" d="M1287.7,870.1c4.2-7.7-2.4-7.7-7.7-7.7v-2.2h24.1v2.2c-2.2,0-5.5,0-7.8,4.1l-29.7,53.7
				c-10.1,18.1-35.3,14.8-37.2,6.8c-1.9-9.2,10.7-10.9,16.6-7.9c3.3,1.7,3.5,5.4,2.2,7.5c1.6,0.6,5.2,0.6,7.3,0
				c4.5-2,11.1-12,9-15.2l-25.3-44.8c-2.4-4.1-5.8-4.1-7.9-4.1v-2.2h40.1v2.2c-5.2,0-11.9,0.2-7.7,7.7l12.1,22.6L1287.7,870.1z"/>
			<path class="st0" d="M877.6,670.3h148V500.8l130.3,169.5h164.4l-146.1-189.6c26-12.5,100.1-52.8,100.1-162.2
				c0-59.1-35.7-103.7-66.1-127.1c-30.7-23.5-68.9-34.5-130.6-34.5H877.6V670.3z M1025.6,284.3h33.1c50.9,0,62.8,32.3,62.8,51.1
				c0,17.8-9,52-62.8,52h-33.1V284.3z"/>
			<polygon class="st0" points="1305.3,281.7 1194.1,281.7 1194.1,156.8 1563.6,156.8 1563.6,281.7 1451.7,281.7 1451.7,670.3 
				1305.3,670.3 			"/>
			<path class="st0" d="M748.8,411.8c-0.5-16.4-3.4-32.2-8.2-46.7c7.4-2.9,14.6-6.2,21.5-9.8c9.6,16.9,15.5,36.1,16.3,56.5H748.8z
				 M762.1,478.9c-6.8-3.4-14-6.7-21.4-9.6c4.7-14.5,7.7-30.1,8.2-46.5h29.6C777.4,443,771.8,462,762.1,478.9 M740.3,507.1
				c-5.3-1.1-10.8-2.2-16.5-3.1c5-7.5,9.3-15.8,13-24.4c6.8,2.6,13.3,5.6,19.4,8.7C751.5,494.9,746.2,501.2,740.3,507.1 M687,539.8
				c11-6.6,21-15.4,29.6-25.8c4.6,0.7,9.2,1.4,13.6,2.3C717.5,526.4,703,534.5,687,539.8 M686.6,510.3c5.7,0.6,11.3,1.1,16.8,1.8
				c-9.1,10-19.7,18-31.3,23.1C677.5,528.4,682.3,520.1,686.6,510.3 M647.1,540.9v-32.5c9.2,0.2,18.5,0.5,27.5,1
				C666.8,526.6,657,537.7,647.1,540.9 M647.1,462.8c13.8,0.2,27.3,1.5,40.4,3.7c-2.1,12-5,22.8-8.5,32.3
				c-10.4-0.7-21.1-1.1-31.9-1.1V462.8z M647.1,422.8h44.5c-0.2,11.5-1.1,22.5-2.5,32.8c-13.6-2.1-27.7-3.5-42-3.6V422.8z
				 M647.1,382.3c14.3-0.2,28.4-1.6,42-3.7c1.4,10.4,2.2,21.4,2.5,33.2h-44.5V382.3z M647.1,336.8c10.9-0.1,21.6-0.6,31.9-1.2
				c3.5,9.4,6.4,20.3,8.5,32.5c-13.1,2.1-26.6,3.2-40.4,3.5V336.8z M647.1,293.4c9.9,3.2,19.7,14.1,27.5,31.3
				c-9,0.6-18.2,0.9-27.5,1.1V293.4z M703.4,322.2c-5.4,0.8-11.1,1.4-16.8,1.8c-4.2-9.8-9.1-18.1-14.4-24.7
				C683.7,304.3,694.3,312.1,703.4,322.2 M730.2,318c-4.4,0.8-9,1.7-13.6,2.3C708,309.7,698,301,687,294.4
				C703,299.8,717.5,307.7,730.2,318 M703.2,411.8c-0.3-12.3-1.1-23.9-2.6-35.2c10.2-2,20.1-4.5,29.4-7.6
				c4.4,13.2,6.9,27.6,7.4,42.8H703.2z M700.5,457.7c1.5-11.1,2.4-22.8,2.6-34.9h34.1c-0.5,14.9-3,29.3-7.4,42.6
				C720.6,462.3,710.7,459.7,700.5,457.7 M690.7,334.5c7.1-0.6,14.1-1.4,20.9-2.4c5.8,7.9,10.7,16.9,14.6,26.6
				c-8.8,2.8-17.9,5.2-27.5,7.2C696.8,354.5,694,344.1,690.7,334.5 M726.2,475.7c-3.9,9.7-8.9,18.6-14.7,26.5
				c-6.8-1-13.7-1.8-20.8-2.4c3.3-9.4,6.1-20,8-31.3C708.2,470.3,717.4,472.8,726.2,475.7 M756.1,345.9c-6,3.3-12.6,6.2-19.4,8.9
				c-3.6-8.9-8-16.9-13-24.5c5.7-1.1,11.2-2.2,16.7-3.1C746.2,333,751.5,339.3,756.1,345.9 M635.6,325.8c-9.4-0.1-18.6-0.4-27.5-1
				c7.8-17.2,17.6-28.2,27.5-31.3V325.8z M635.6,371.5c-13.8-0.3-27.4-1.5-40.3-3.7c2.1-12,4.9-22.9,8.3-32.3
				c10.4,0.7,21,1.1,32,1.2V371.5z M635.6,411.8h-44.5c0.1-11.8,1.1-22.8,2.4-33.1c13.6,2.2,27.7,3.4,42.1,3.6V411.8z M635.6,451.9
				c-14.4,0.2-28.5,1.5-42.1,3.6c-1.3-10.3-2.2-21.3-2.4-32.8h44.5V451.9z M635.6,497.6c-10.8,0-21.6,0.5-32,1.1
				c-3.4-9.4-6.2-20.3-8.4-32.3c12.9-2.2,26.6-3.5,40.4-3.7V497.6z M635.6,540.9c-9.9-3.2-19.7-14.3-27.5-31.5
				c8.9-0.5,18.1-0.8,27.5-1V540.9z M579.2,512c5.6-0.7,11.2-1.2,16.8-1.8c4.3,9.8,9.1,18.2,14.5,24.9
				C599.1,530.1,588.4,522.1,579.2,512 M552.6,516.2c4.4-0.9,8.9-1.6,13.6-2.3c8.5,10.4,18.5,19.2,29.4,25.8
				C579.6,534.5,565.2,526.4,552.6,516.2 M526.6,488.2c6.2-3.1,12.6-6.1,19.4-8.7c3.6,8.6,7.9,16.9,12.9,24.4
				c-5.7,0.9-11.1,2-16.6,3.1C536.5,501.2,531.3,494.9,526.6,488.2 M504.4,422.8H534c0.5,16.4,3.3,32,8.1,46.5
				c-7.5,2.9-14.7,6.2-21.3,9.6C511,462,505.2,443,504.4,422.8 M520.7,355.3c6.7,3.6,13.8,6.9,21.3,9.8c-4.8,14.6-7.5,30.3-8.1,46.7
				h-29.7C505.1,391.3,511,372.3,520.7,355.3 M542.3,327.2c5.3,1,10.8,2,16.6,3.1c-5,7.5-9.3,15.5-12.9,24.2
				c-6.8-2.6-13.2-5.5-19.4-8.7C531.3,339.2,536.5,333,542.3,327.2 M595.5,294.4c-10.9,6.6-20.9,15.3-29.4,25.9
				c-4.7-0.8-9.3-1.5-13.5-2.3C565.2,307.7,579.7,299.8,595.5,294.4 M579.3,322.1c9.1-10,19.7-17.8,31.2-22.9
				c-5.4,6.6-10.2,14.9-14.4,24.6C590.5,323.4,584.8,322.9,579.3,322.1 M556.6,358.5c4-9.6,8.9-18.4,14.4-26.4
				c6.9,1,13.8,1.8,21,2.4c-3.2,9.6-6,19.9-8,31.2C574.6,363.8,565.4,361.3,556.6,358.5 M584,468.4c2.1,11.3,4.8,21.9,8,31.3
				c-7.1,0.6-14,1.4-21,2.4c-5.6-7.9-10.5-16.8-14.5-26.5C565.4,472.8,574.4,470.3,584,468.4 M545.4,411.8c0.5-15.2,3-29.5,7.4-42.8
				c9.3,3,19.2,5.6,29.5,7.6c-1.6,11.3-2.4,22.9-2.7,35.2H545.4z M579.6,422.8c0.3,12,1.1,23.8,2.7,34.9
				c-10.3,2.1-20.1,4.7-29.4,7.8c-4.3-13.3-6.9-27.7-7.4-42.6H579.6z M641.8,146.5c-155.5,0-281.5,119.7-281.5,267.1
				c0,147.6,126,267,281.5,267c155.4,0,281.4-119.4,281.4-267C923.2,266.2,797.3,146.5,641.8,146.5"/>
		</g>
	</g>
</g>
</svg>
