<svg width="180" height="80" viewBox="0 0 180 80" fill="none" xmlns="http://www.w3.org/2000/svg">
<path d="M10.4 63.02C10.4 65.01 8.48 65.7 5.73 65.62C2.86 65.52 1.69 64.22 1.69 63.43V59C1.69 58.41 1.2 58.06 0.32 58.06V57.82H5.76V58.06C4.88 58.06 4.37 58.41 4.37 59V63.04C4.37 63.87 4.63 64.77 5.91 65.04C7.03 65.25 9.73 65.2 9.73 63.05V59C9.73 58.41 9.27 58.06 8.4 58.06V57.82H11.74V58.06C10.86 58.06 10.39 58.41 10.39 59L10.4 63.02Z" fill="#363636"/>
<path d="M23.38 65.54L16 59.52H15.96V64.24C15.96 64.83 16.44 65.19 17.31 65.19V65.43H13.97V65.19C14.85 65.19 15.32 64.82 15.32 64.24V58.97L14.69 58.48C14.46 58.28 14.29 58.06 13.84 58.06V57.82H17.36L23.17 62.63H23.19V59C23.19 58.41 22.73 58.06 21.86 58.06V57.82H25.21V58.06C24.33 58.06 23.87 58.41 23.87 59V65.53H23.38V65.54Z" fill="#363636"/>
<path d="M31.54 64.24C31.54 64.83 32.06 65.2 33.14 65.2V65.44H27.28V65.2C28.38 65.2 28.88 64.83 28.88 64.24V59.02C28.88 58.44 28.38 58.07 27.28 58.07V57.84H33.14V58.07C32.06 58.07 31.54 58.43 31.54 59.02V64.24Z" fill="#363636"/>
<path d="M44.37 58.97C44.92 58.04 43.94 58.06 43.14 58.06V57.82H46.61V58.06C46.05 58.06 45.59 58.19 45.28 58.73L41.2 65.62H40.84L36.57 58.69C36.17 58.07 35.79 58.05 35.29 58.07V57.83H40.84V58.07C39.32 58.07 39.2 58.41 39.39 58.72L41.95 63.07L44.37 58.97Z" fill="#363636"/>
<path d="M52.81 64.32C52.81 64.89 52.92 65.05 53.76 65.1C56.16 65.23 57.47 64.74 58.66 63.12H59.11L58.36 65.44H48.75V65.2C49.63 65.2 50.12 64.83 50.12 64.25V59C50.12 58.41 49.63 58.06 48.75 58.06V57.82H58.24V60.13H57.91C57.74 59.75 57.61 58.25 54.97 58.2L53.53 58.18C52.92 58.17 52.8 58.27 52.8 58.84V61.38C54.73 61.32 55.03 61.13 55.58 59.72H55.93V63.43H55.58C55.04 62.01 54.73 61.83 52.8 61.76V64.32H52.81Z" fill="#363636"/>
<path d="M69.34 65.44H72.65V65.2C72.44 65.2 72.27 65.25 71.8 64.79L68.62 61.69C69.63 61.52 70.39 61.25 70.95 60.69C71.63 59.99 71.2 59.08 70.54 58.61C69.61 58 67.96 57.83 66.63 57.83H61.4V58.07C62.27 58.07 62.78 58.42 62.78 59.01V64.24C62.78 64.83 62.27 65.2 61.4 65.2V65.44H66.84V65.2C65.96 65.2 65.45 64.83 65.45 64.24V61.89H65.88L69.34 65.44ZM65.45 58.66C65.45 58.36 65.81 58.23 66.14 58.19C67.41 58.11 67.98 58.47 68.32 58.87C68.57 59.18 68.67 60.12 68.4 60.66C67.89 61.66 66.28 61.52 65.45 61.53V58.66Z" fill="#363636"/>
<path d="M82.52 60.18H82.19C81.78 59.58 81.13 58.1 78.88 58.08C77.4 58.08 77.09 58.91 77.09 59.18C77.09 59.66 77.44 60.23 79.28 60.67C81.87 61.28 82.99 62.18 82.99 63.24C82.99 64.04 82.4 65.6 78.77 65.6C77.8 65.6 76.73 65.23 75.93 65.23C75.71 65.23 75.65 65.39 75.6 65.6H75.2V62.9H75.59L75.94 63.68C76.14 64.12 77.26 65.27 78.81 65.27C80.98 65.27 81.1 64.3 81.1 64.05C81.1 63.41 80.55 63.07 77.81 62.24C75.94 61.66 75.35 60.69 75.35 59.99C75.35 58.47 77.16 57.73 78.57 57.73C80.35 57.73 80.79 58.12 81.62 58.14C81.88 58.14 81.93 57.95 82.13 57.73H82.51V60.18H82.52Z" fill="#363636"/>
<path d="M89.76 64.24C89.76 64.83 90.25 65.2 91.35 65.2V65.44H85.5V65.2C86.6 65.2 87.1 64.83 87.1 64.24V59.02C87.1 58.44 86.59 58.07 85.5 58.07V57.84H91.35V58.07C90.25 58.07 89.76 58.43 89.76 59.02V64.24Z" fill="#363636"/>
<path d="M93.48 57.82V58.06C94.35 58.06 94.86 58.41 94.86 59V64.23C94.86 64.82 94.35 65.19 93.48 65.19V65.43H99.08C100.28 65.43 101.48 65.16 102.61 64.55C104.56 63.53 105.04 61.38 104.2 59.99C103.17 58.31 100.99 57.82 98.68 57.82H93.48ZM97.54 58.88C97.54 58.25 97.57 58.18 98.26 58.18C99.22 58.18 99.9 58.15 100.72 58.8C101.99 59.84 102.03 62.24 101.34 63.61C101.08 64.13 100.63 65.06 98.27 65.06C97.59 65.06 97.55 65 97.55 64.38V58.88H97.54Z" fill="#363636"/>
<path d="M112.35 57.82L108.23 64.47C107.85 65.09 107.43 65.19 106.99 65.19V65.43H110.35V65.19C109.18 65.19 108.81 64.81 109.16 64.23L109.75 63.23H113.59L114.39 64.5C114.74 65.09 113.66 65.18 112.94 65.18V65.42H118.31V65.18C118.07 65.18 117.48 65.22 117.13 64.67L112.86 57.81H112.35V57.82ZM109.99 62.81L111.61 60.05L113.31 62.81H109.99Z" fill="#363636"/>
<path d="M120.49 57.82V58.06C121.36 58.06 121.87 58.41 121.87 59V64.23C121.87 64.82 121.36 65.19 120.49 65.19V65.43H126.07C127.27 65.43 128.49 65.16 129.6 64.55C131.55 63.53 132.04 61.38 131.2 59.99C130.15 58.31 127.99 57.82 125.67 57.82H120.49ZM124.53 58.88C124.53 58.25 124.56 58.18 125.27 58.18C126.21 58.18 126.9 58.15 127.72 58.8C129 59.84 129.04 62.24 128.34 63.61C128.09 64.13 127.63 65.06 125.28 65.06C124.58 65.06 124.54 65 124.54 64.38V58.88H124.53Z" fill="#363636"/>
<path d="M154.2 61.66C154.2 60.34 153.33 59.06 151.81 58.41C150.71 57.95 149.52 57.73 148.41 57.73C147.29 57.73 146.11 57.95 145 58.41C143.5 59.06 142.62 60.35 142.62 61.66C142.62 62.97 143.5 64.26 145 64.9C146.11 65.36 147.29 65.6 148.41 65.6C149.52 65.6 150.72 65.37 151.81 64.9C153.33 64.26 154.2 62.97 154.2 61.66ZM148.4 65.32C148.1 65.32 147.75 65.28 147.38 65.15C146.72 64.94 146.25 64.52 145.86 63.77C145.6 63.3 145.44 62.51 145.44 61.67C145.44 60.84 145.61 60.04 145.86 59.56C146.25 58.8 146.72 58.38 147.38 58.17C147.76 58.05 148.1 58 148.4 58C148.69 58 149.06 58.05 149.42 58.17C150.09 58.38 150.56 58.8 150.95 59.56C151.19 60.04 151.37 60.83 151.37 61.67C151.37 62.51 151.19 63.29 150.95 63.77C150.56 64.52 150.09 64.95 149.42 65.15C149.06 65.27 148.69 65.32 148.4 65.32Z" fill="#363636"/>
<path d="M164.7 65.44H167.99V65.2C167.79 65.2 167.61 65.25 167.15 64.79L163.96 61.69C164.99 61.52 165.73 61.25 166.3 60.69C166.96 59.99 166.56 59.08 165.88 58.61C164.97 58 163.31 57.83 162 57.83H156.74V58.07C157.61 58.07 158.12 58.42 158.12 59.01V64.24C158.12 64.83 157.61 65.2 156.74 65.2V65.44H162.16V65.2C161.3 65.2 160.8 64.83 160.8 64.24V61.89H161.22L164.7 65.44ZM160.81 58.66C160.81 58.36 161.15 58.23 161.5 58.19C162.76 58.11 163.34 58.47 163.68 58.87C163.91 59.18 164.02 60.12 163.76 60.66C163.25 61.66 161.63 61.52 160.81 61.53V58.66Z" fill="#363636"/>
<path d="M176.11 64.24C176.11 64.83 176.61 65.2 177.49 65.2V65.44H172.07V65.2C172.94 65.2 173.45 64.83 173.45 64.24V58.18C173.04 58.19 171.93 58.05 171 58.69C170.18 59.26 170.21 59.79 170.12 60.09H169.75V57.83H179.8V60.09H179.43C179.36 59.79 179.37 59.25 178.54 58.69C177.59 58.05 176.51 58.19 176.11 58.18V64.24Z" fill="#363636"/>
<path d="M64.92 74.68C64.92 76.62 63.05 77.3 60.38 77.21C57.58 77.11 56.43 75.86 56.43 75.08V70.75C56.43 70.19 55.95 69.83 55.09 69.83V69.6H60.39V69.83C59.54 69.83 59.06 70.2 59.06 70.75V74.7C59.06 75.51 59.29 76.38 60.55 76.64C61.64 76.86 64.28 76.81 64.28 74.7V70.75C64.28 70.19 63.81 69.83 62.97 69.83V69.6H66.22V69.83C65.38 69.83 64.91 70.2 64.91 70.75V74.68H64.92Z" fill="#363636"/>
<path d="M71.37 76.25C71.37 76.76 71.79 76.81 72.07 76.81V77.03H68.43V76.81C68.73 76.81 69.14 76.77 69.14 76.25V72.79C69.14 72.27 68.72 72.24 68.43 72.24V72.01H71.37V72.95H71.41C71.61 72.67 72.22 71.9 73.37 71.9C74.16 71.9 75.03 72.16 74.74 73C74.58 73.47 73.53 73.62 72.97 73.16C72.68 72.9 72.66 72.68 72.05 72.88C71.58 73.03 71.37 73.54 71.37 73.9V76.25Z" fill="#363636"/>
<path d="M84.35 76.09C84.35 76.63 84.78 76.54 85.17 76.63L85.19 76.86C84.31 76.88 83.88 76.92 82.12 77.2V76.42H82.1C81.8 76.74 81.07 77.29 79.56 77.2C77.9 77.09 77.68 76.58 77.68 75.93V72.79C77.68 72.27 77.27 72.24 76.97 72.24V72.01H79.9V75.97C79.9 76.55 81.04 76.81 82.12 76.03V72.78C82.12 72.26 81.71 72.23 81.41 72.23V72H84.36V76.09H84.35Z" fill="#363636"/>
<path d="M92.53 77.67C94.01 77.68 93.77 78.15 93.4 78.55C92.86 79.09 89.97 79.06 89.33 78.79C88.07 78.25 88.94 77.76 89.41 77.64L92.53 77.67ZM94.83 72.13H92.65C91.92 71.81 89.57 71.69 88.27 72.52C87.37 73.09 87.41 74.16 88.23 74.74C88.58 74.97 89.08 75.11 89.52 75.31C89.03 75.48 88.24 75.72 87.9 76.07C87.1 76.91 88.33 77.3 88.72 77.51C87.27 77.68 87.1 78.56 88.05 78.98C89.18 79.49 92.02 79.34 92.92 79.16C93.89 78.98 94.58 78.59 94.76 78C95.19 76.6 93.47 76.41 92.43 76.39L90.06 76.3C89.52 76.27 89.22 75.88 89.6 75.64C89.77 75.54 89.97 75.4 90.22 75.4C90.94 75.44 91.71 75.4 92.43 75.27C93.01 75.19 93.93 74.8 94.13 74.11C94.36 73.35 93.67 72.89 93.5 72.71H94.82V72.13H94.83ZM90.02 74.74C89.91 74.58 89.42 72.98 90.15 72.45C90.39 72.27 91.17 71.9 91.72 72.56C92.08 72.98 92.05 74.45 91.77 74.76C91.41 75.17 90.4 75.23 90.02 74.74Z" fill="#363636"/>
<path d="M104.37 76.09C104.37 76.63 104.8 76.54 105.18 76.63L105.21 76.86C104.34 76.88 103.9 76.92 102.14 77.2V76.42H102.1C101.81 76.74 101.08 77.29 99.57 77.2C97.91 77.09 97.7 76.58 97.7 75.93V72.79C97.7 72.27 97.28 72.24 96.98 72.24V72.01H99.9V75.97C99.9 76.55 101.04 76.81 102.14 76.03V72.78C102.14 72.26 101.72 72.23 101.43 72.23V72H104.37V76.09Z" fill="#363636"/>
<path d="M114.06 73.31C114.06 72.98 113.85 72.6 113.25 72.28C112.46 71.91 109.81 71.57 108.36 72.43C107.65 72.86 107.77 73.42 108.04 73.67C108.48 74.04 109.5 74 109.84 73.57C110.11 73.21 109.82 73.07 109.59 72.81C109.38 72.56 109.44 72.44 109.78 72.32C110.14 72.21 110.81 72.17 111.29 72.32C111.75 72.47 111.83 72.76 111.83 73.12V74.02C110.63 74.26 109.43 74.54 108.96 74.7C108.36 74.96 107.47 75.43 107.47 76.12C107.47 76.53 107.86 77.2 109.4 77.2C110.46 77.2 111.17 76.86 111.8 76.52C112.1 76.79 112.48 77.2 113.02 77.2C113.61 77.21 114.34 77.05 114.99 76.64L114.86 76.38C114.4 76.62 114.05 76.5 114.05 76.31V73.31H114.06ZM111.84 76C111.5 76.34 110.94 76.47 110.64 76.47C109.73 76.47 109.66 75.62 109.95 75.25C110.49 74.54 111.55 74.43 111.83 74.38V76H111.84Z" fill="#363636"/>
<path d="M122.77 73.01C123.19 72.24 122.53 72.24 122 72.24V72.02H124.41V72.24C124.19 72.24 123.86 72.24 123.63 72.65L120.66 78.02C119.65 79.83 117.13 79.5 116.94 78.7C116.75 77.78 118.01 77.61 118.6 77.91C118.93 78.08 118.95 78.45 118.82 78.66C118.98 78.72 119.34 78.72 119.55 78.66C120 78.46 120.66 77.46 120.45 77.14L117.92 72.66C117.68 72.25 117.34 72.25 117.13 72.25V72.03H121.14V72.25C120.62 72.25 119.95 72.27 120.37 73.02L121.58 75.28L122.77 73.01Z" fill="#363636"/>
<path d="M81.76 53.03H96.56V36.08L109.59 53.03H126.03L111.42 34.07C114.02 32.82 121.43 28.79 121.43 17.85C121.43 11.94 117.86 7.48 114.82 5.14C111.75 2.79 107.93 1.69 101.76 1.69H81.76V53.03ZM96.56 14.43H99.87C104.96 14.43 106.15 17.66 106.15 19.54C106.15 21.32 105.25 24.74 99.87 24.74H96.56V14.43Z" fill="#363636"/>
<path d="M124.53 14.17H113.41V1.67999H150.36V14.17H139.17V53.03H124.53V14.17Z" fill="#363636"/>
<path d="M68.88 27.18C68.83 25.54 68.54 23.96 68.06 22.51C68.8 22.22 69.52 21.89 70.21 21.53C71.17 23.22 71.76 25.14 71.84 27.18H68.88ZM70.21 33.89C69.53 33.55 68.81 33.22 68.07 32.93C68.54 31.48 68.84 29.92 68.89 28.28H71.85C71.74 30.3 71.18 32.2 70.21 33.89ZM68.03 36.71C67.5 36.6 66.95 36.49 66.38 36.4C66.88 35.65 67.31 34.82 67.68 33.96C68.36 34.22 69.01 34.52 69.62 34.83C69.15 35.49 68.62 36.12 68.03 36.71ZM62.7 39.98C63.8 39.32 64.8 38.44 65.66 37.4C66.12 37.47 66.58 37.54 67.02 37.63C65.75 38.64 64.3 39.45 62.7 39.98ZM62.66 37.03C63.23 37.09 63.79 37.14 64.34 37.21C63.43 38.21 62.37 39.01 61.21 39.52C61.75 38.84 62.23 38.01 62.66 37.03ZM58.71 40.09V36.84C59.63 36.86 60.56 36.89 61.46 36.94C60.68 38.66 59.7 39.77 58.71 40.09ZM58.71 32.28C60.09 32.3 61.44 32.43 62.75 32.65C62.54 33.85 62.25 34.93 61.9 35.88C60.86 35.81 59.79 35.77 58.71 35.77V32.28ZM58.71 28.28H63.16C63.14 29.43 63.05 30.53 62.91 31.56C61.55 31.35 60.14 31.21 58.71 31.2V28.28ZM58.71 24.23C60.14 24.21 61.55 24.07 62.91 23.86C63.05 24.9 63.13 26 63.16 27.18H58.71V24.23ZM58.71 19.68C59.8 19.67 60.87 19.62 61.9 19.56C62.25 20.5 62.54 21.59 62.75 22.81C61.44 23.02 60.09 23.13 58.71 23.16V19.68ZM58.71 15.34C59.7 15.66 60.68 16.75 61.46 18.47C60.56 18.53 59.64 18.56 58.71 18.58V15.34ZM64.34 18.22C63.8 18.3 63.23 18.36 62.66 18.4C62.24 17.42 61.75 16.59 61.22 15.93C62.37 16.43 63.43 17.21 64.34 18.22ZM67.02 17.8C66.58 17.88 66.12 17.97 65.66 18.03C64.8 16.97 63.8 16.1 62.7 15.44C64.3 15.98 65.75 16.77 67.02 17.8ZM64.32 27.18C64.29 25.95 64.21 24.79 64.06 23.66C65.08 23.46 66.07 23.21 67 22.9C67.44 24.22 67.69 25.66 67.74 27.18H64.32ZM64.05 31.77C64.2 30.66 64.29 29.49 64.31 28.28H67.72C67.67 29.77 67.42 31.21 66.98 32.54C66.06 32.23 65.07 31.97 64.05 31.77ZM63.07 19.45C63.78 19.39 64.48 19.31 65.16 19.21C65.74 20 66.23 20.9 66.62 21.87C65.74 22.15 64.83 22.39 63.87 22.59C63.68 21.45 63.4 20.41 63.07 19.45ZM66.62 33.57C66.23 34.54 65.73 35.43 65.15 36.22C64.47 36.12 63.78 36.04 63.07 35.98C63.4 35.04 63.68 33.98 63.87 32.85C64.82 33.03 65.74 33.28 66.62 33.57ZM69.61 20.59C69.01 20.92 68.35 21.21 67.67 21.48C67.31 20.59 66.87 19.79 66.37 19.03C66.94 18.92 67.49 18.81 68.04 18.72C68.62 19.3 69.15 19.93 69.61 20.59ZM57.56 18.58C56.62 18.57 55.7 18.54 54.81 18.48C55.59 16.76 56.57 15.66 57.56 15.35V18.58ZM57.56 23.15C56.18 23.12 54.82 23 53.53 22.78C53.74 21.58 54.02 20.49 54.36 19.55C55.4 19.62 56.46 19.66 57.56 19.67V23.15ZM57.56 27.18H53.11C53.12 26 53.22 24.9 53.35 23.87C54.71 24.09 56.12 24.21 57.56 24.23V27.18ZM57.56 31.19C56.12 31.21 54.71 31.34 53.35 31.55C53.22 30.52 53.13 29.42 53.11 28.27H57.56V31.19ZM57.56 35.76C56.48 35.76 55.4 35.81 54.36 35.87C54.02 34.93 53.74 33.84 53.52 32.64C54.81 32.42 56.18 32.29 57.56 32.27V35.76ZM57.56 40.09C56.57 39.77 55.59 38.66 54.81 36.94C55.7 36.89 56.62 36.86 57.56 36.84V40.09ZM51.92 37.2C52.48 37.13 53.04 37.08 53.6 37.02C54.03 38 54.51 38.84 55.05 39.51C53.91 39.01 52.84 38.21 51.92 37.2ZM49.26 37.62C49.7 37.53 50.15 37.46 50.62 37.39C51.47 38.43 52.47 39.31 53.56 39.97C51.96 39.45 50.52 38.64 49.26 37.62ZM46.66 34.82C47.28 34.51 47.92 34.21 48.6 33.95C48.96 34.81 49.39 35.64 49.89 36.39C49.32 36.48 48.78 36.59 48.23 36.7C47.65 36.12 47.13 35.49 46.66 34.82ZM44.44 28.28H47.4C47.45 29.92 47.73 31.48 48.21 32.93C47.46 33.22 46.74 33.55 46.08 33.89C45.1 32.2 44.52 30.3 44.44 28.28ZM46.07 21.53C46.74 21.89 47.45 22.22 48.2 22.51C47.72 23.97 47.45 25.54 47.39 27.18H44.42C44.51 25.13 45.1 23.23 46.07 21.53ZM48.23 18.72C48.76 18.82 49.31 18.92 49.89 19.03C49.39 19.78 48.96 20.58 48.6 21.45C47.92 21.19 47.28 20.9 46.66 20.58C47.13 19.92 47.65 19.3 48.23 18.72ZM53.55 15.44C52.46 16.1 51.46 16.97 50.61 18.03C50.14 17.95 49.68 17.88 49.26 17.8C50.52 16.77 51.97 15.98 53.55 15.44ZM51.93 18.21C52.84 17.21 53.9 16.43 55.05 15.92C54.51 16.58 54.03 17.41 53.61 18.38C53.05 18.34 52.48 18.29 51.93 18.21ZM49.66 21.85C50.06 20.89 50.55 20.01 51.1 19.21C51.79 19.31 52.48 19.39 53.2 19.45C52.88 20.41 52.6 21.44 52.4 22.57C51.46 22.38 50.54 22.13 49.66 21.85ZM52.4 32.84C52.61 33.97 52.88 35.03 53.2 35.97C52.49 36.03 51.8 36.11 51.1 36.21C50.54 35.42 50.05 34.53 49.65 33.56C50.54 33.28 51.44 33.03 52.4 32.84ZM48.54 27.18C48.59 25.66 48.84 24.23 49.28 22.9C50.21 23.2 51.2 23.46 52.23 23.66C52.07 24.79 51.99 25.95 51.96 27.18H48.54ZM51.96 28.28C51.99 29.48 52.07 30.66 52.23 31.77C51.2 31.98 50.22 32.24 49.29 32.55C48.86 31.22 48.6 29.78 48.55 28.29H51.96V28.28ZM58.18 0.649994C42.63 0.649994 30.03 12.62 30.03 27.36C30.03 42.12 42.63 54.06 58.18 54.06C73.72 54.06 86.32 42.12 86.32 27.36C86.32 12.62 73.73 0.649994 58.18 0.649994Z" fill="#363636"/>
</svg>
