<?xml version="1.0" encoding="utf-8"?>
<!-- Generator: Adobe Illustrator 28.0.0, SVG Export Plug-In . SVG Version: 6.00 Build 0)  -->
<svg version="1.1" id="Capa_1" xmlns="http://www.w3.org/2000/svg" xmlns:xlink="http://www.w3.org/1999/xlink" x="0px" y="0px"
	 viewBox="0 0 1920 1080" style="enable-background:new 0 0 1920 1080;" xml:space="preserve">
<style type="text/css">
	.st0{fill:#FFFFFF;}
</style>
<g>
	<g>
		<g>
			<path class="st0" d="M164.04585,770.19135c0,19.91205-19.22168,26.7865-46.6501,26.00122
				c-28.69769-1.02496-40.35842-13.97351-40.35842-21.92865v-44.22955c0-5.86926-4.8773-9.39471-13.72702-9.39471v-2.39801h54.35214
				v2.39801c-8.81807,0-13.85373,3.52545-13.85373,9.39471v40.35596c0,8.2868,2.55634,17.31354,15.40394,20.02502
				c11.15956,2.06335,38.21045,1.58569,38.21045-19.89386v-40.48712c0-5.86926-4.5947-9.39471-13.34872-9.39471v-2.39801h33.43935
				v2.39801c-8.76898,0-13.46788,3.52545-13.46788,9.39471V770.19135z"/>
			<path class="st0" d="M293.82806,795.35004l-73.7803-60.16412h-0.36703v47.20648c0,5.89178,4.76138,9.54828,13.52513,9.54828
				v2.42963h-33.44537v-2.42963c8.77209,0,13.45508-3.65649,13.45508-9.54828v-52.6701l-6.26482-4.90448
				c-2.32715-2.00012-4.00328-4.17212-8.51665-4.17212v-2.39801h35.23756l58.06741,48.08966h0.22766v-36.297
				c0-5.87219-4.60306-9.39465-13.34888-9.39465v-2.39801h33.4523v2.39801c-8.76392,0-13.40909,3.52246-13.40909,9.39465v65.30969
				H293.82806z"/>
			<path class="st0" d="M375.44147,782.3924c0,5.89178,5.15482,9.55273,15.99551,9.55273v2.42517h-58.57767v-2.42517
				c11.0043,0,16.01434-3.66095,16.01434-9.55273v-52.23456c0-5.84351-5.01004-9.46832-16.01434-9.46832v-2.32422h58.57767v2.32422
				c-10.8407,0-15.99551,3.62482-15.99551,9.46832V782.3924z"/>
			<path class="st0" d="M503.74359,729.72675c5.46454-9.2981-4.28125-9.0871-12.29446-9.0871v-2.3844h34.66696v2.3844
				c-5.60223,0-10.15027,1.30389-13.30273,6.73431l-40.78253,68.81262h-3.62946l-42.68851-69.33862
				c-3.98428-6.20831-7.83755-6.41931-12.80838-6.20831v-2.3844h55.49689v2.3844c-15.22598,0-16.3934,3.43347-14.45349,6.52332
				l25.63403,43.53027L503.74359,729.72675z"/>
			<path class="st0" d="M588.11151,783.2002c0,5.65674,1.07758,7.30402,9.52863,7.76532
				c24.04034,1.27209,37.07037-3.61896,48.97894-19.76123h4.49011l-7.46393,23.16602h-96.06012v-2.42963
				c8.83691,0,13.72858-3.65649,13.72858-9.54828v-52.35205c0-5.87219-4.89166-9.39465-13.72858-9.39465v-2.39801h94.9101v23.12091
				h-3.33771c-1.65717-3.82837-3.02881-18.83429-29.38269-19.31055l-14.39471-0.22009
				c-6.07343-0.09198-7.26862,0.91937-7.26862,6.64081v25.43909c19.29779-0.63599,22.34998-2.4884,27.77753-16.59308h3.50507
				v37.13965h-3.50507c-5.42755-14.21924-8.47974-16.03394-27.77753-16.68359V783.2002z"/>
			<path class="st0" d="M753.36401,794.3703h33.14703v-2.42963c-2.07251,0-3.77716,0.45825-8.46539-4.06659L746.25293,756.875
				c10.10901-1.67609,17.70996-4.43573,23.34088-10.01556c6.80365-7.04779,2.5224-16.08362-4.09662-20.8313
				c-9.25287-6.10138-25.76453-7.78046-39.0614-7.78046h-52.39264v2.38904c8.69818,0,13.8454,3.53143,13.8454,9.40363v52.34607
				c0,5.89777-5.14722,9.55426-13.8454,9.55426v2.42963h54.35895v-2.42963c-8.83533,0-13.86578-3.65649-13.86578-9.55426v-23.50232
				h4.29718L753.36401,794.3703z M714.53632,726.63544c0-3.03711,3.61731-4.34235,6.89026-4.69501
				c12.68939-0.83655,18.39655,2.78381,21.78711,6.8277c2.46283,3.06274,3.48767,12.45435,0.8222,17.86981
				c-5.11932,9.96729-21.2453,8.56097-29.49957,8.72687V726.63544z"/>
			<path class="st0" d="M885.20728,741.82086h-3.27661c-4.0567-6.04108-10.60181-20.77423-33.08978-20.96265
				c-14.77008,0-17.91937,8.28973-17.91937,10.97266c0,4.82019,3.48022,10.51752,21.88037,14.93365
				c25.90936,6.0816,37.09595,15.09027,37.09595,25.68018c0,7.98077-5.89777,23.573-42.15863,23.573
				c-9.73224,0-20.4425-3.71375-28.37207-3.71375c-2.20135,0-2.81409,1.60809-3.29175,3.71375h-3.97009v-27.02002h3.87427
				l3.49298,7.81195c2.00323,4.40112,13.2373,15.862,28.70978,15.862c21.72369,0,22.9317-9.68396,22.9317-12.24615
				c0-6.39972-5.53674-9.84674-32.9306-18.13959c-18.71088-5.84644-24.59351-15.52136-24.59351-22.47424
				c0-15.23352,18.14697-22.56781,32.21619-22.56781c17.82983,0,22.17963,3.90082,30.45441,4.09528
				c2.64508,0,3.07092-1.86749,5.11853-4.09528h3.82825V741.82086z"/>
			<path class="st0" d="M957.55505,782.3924c0,5.89178,4.89783,9.55273,15.94269,9.55273v2.42517h-58.54523v-2.42517
				c10.95154,0,16.00677-3.66095,16.00677-9.55273v-52.23456c0-5.84351-5.05524-9.46832-16.00677-9.46832v-2.32422h58.54523v2.32422
				c-11.04486,0-15.94269,3.62482-15.94269,9.46832V782.3924z"/>
			<path class="st0" d="M994.76788,718.24768v2.38904c8.71619,0,13.82874,3.53143,13.82874,9.40363v52.34607
				c0,5.89777-5.11255,9.55426-13.82874,9.55426v2.42963h56.03729c11.98096,0,24.03723-2.73108,35.26001-8.82629
				c19.49304-10.19647,24.33264-31.73328,15.93896-45.58313c-10.27173-16.77539-32.08435-21.7132-55.24597-21.7132H994.76788z
				 M1035.37561,728.76813c0-6.30017,0.33765-7.02216,7.1698-7.02216c9.56787,0,16.38062-0.28339,24.59045,6.18719
				c12.66382,10.37134,13.12354,34.44623,6.15259,48.13037c-2.62402,5.15326-7.12329,14.5191-30.74304,14.5191
				c-6.83215,0-7.1698-0.57416-7.1698-6.82477V728.76813z"/>
			<path class="st0" d="M1183.54065,718.24164l-41.18652,66.54272c-3.78308,6.18719-7.99585,7.16077-12.42554,7.16077v2.41913
				h33.59766v-2.41913c-11.6947,0-15.36023-3.78455-11.92212-9.55273l5.86462-10.02008h38.3634l7.98071,12.724
				c3.53308,5.87524-7.28748,6.84882-14.47839,6.84882v2.41913h53.72827v-2.41913c-2.44189,0-8.3457,0.35883-11.80469-5.14557
				l-42.65015-68.55792H1183.54065z M1159.9375,768.1084l16.22388-27.60486l16.99695,27.60486H1159.9375z"/>
			<path class="st0" d="M1264.93408,718.24768v2.38904c8.72375,0,13.8363,3.53143,13.8363,9.40363v52.34607
				c0,5.89777-5.11255,9.55426-13.8363,9.55426v2.42963h55.80811c12.03528,0,24.15186-2.73108,35.33398-8.82629
				c19.49304-10.19647,24.36584-31.73328,15.9856-45.58313c-10.51733-16.77539-32.09644-21.7132-55.26697-21.7132H1264.93408z
				 M1305.33533,728.76813c0-6.30017,0.34363-7.02216,7.37939-7.02216c9.41418,0,16.27954-0.28339,24.45923,6.18719
				c12.75269,10.37134,13.15967,34.44623,6.15869,48.13037c-2.50806,5.15326-7.10974,14.5191-30.61792,14.5191
				c-7.03577,0-7.37939-0.57416-7.37939-6.82477V728.76813z"/>
			<path class="st0" d="M1601.98816,756.60522c0-13.15051-8.70728-26.0177-23.9303-32.53815
				c-10.9696-4.59546-22.93091-6.82617-34.03333-6.82617c-11.23926,0-23.0033,2.23071-34.11914,6.82617
				c-15.00586,6.52045-23.78113,19.38763-23.78113,32.53815c0,13.10229,8.77527,25.99817,23.78113,32.42041
				c11.11584,4.64844,22.87988,6.99811,34.11914,6.99811c11.10242,0,23.06372-2.34967,34.03333-6.99811
				C1593.28088,782.60339,1601.98816,769.70752,1601.98816,756.60522 M1544.02454,793.16614
				c-3.02637,0-6.47656-0.44928-10.23706-1.7243c-6.61377-2.08002-11.31323-6.3017-15.22302-13.8454
				c-2.57886-4.74182-4.22925-12.55975-4.22925-20.99121c0-8.33344,1.65039-16.32025,4.22925-21.08319
				c3.90979-7.58887,8.60925-11.80902,15.22302-13.9162c3.7605-1.17719,7.21069-1.65344,10.23706-1.65344
				c2.91199,0,6.57458,0.47626,10.21912,1.65344c6.74036,2.10718,11.43677,6.32733,15.34351,13.9162
				c2.41614,4.76294,4.19006,12.74976,4.19006,21.08319c0,8.43146-1.77393,16.24939-4.19006,20.99121
				c-3.90674,7.5437-8.60315,11.76538-15.34351,13.8454C1550.59912,792.71686,1546.93652,793.16614,1544.02454,793.16614"/>
			<path class="st0" d="M1707.04041,794.3703h32.93298v-2.42963c-1.99402,0-3.77722,0.45825-8.41943-4.06659l-31.88391-30.99908
				c10.31104-1.67609,17.72205-4.43573,23.3877-10.01556c6.57605-7.04779,2.63916-16.08362-4.2157-20.8313
				c-9.10217-6.10138-25.71179-7.78046-38.76294-7.78046h-52.59778v2.38904c8.69519,0,13.80164,3.53143,13.80164,9.40363v52.34607
				c0,5.89777-5.10645,9.55426-13.80164,9.55426v2.42963h54.17432v-2.42963c-8.61377,0-13.6012-3.65649-13.6012-9.55426v-23.50232
				h4.19617L1707.04041,794.3703z M1668.05444,726.63544c0-3.03711,3.42139-4.34235,6.86084-4.69501
				c12.58691-0.83655,18.40942,2.78381,21.83972,6.8277c2.30762,3.06274,3.44263,12.45435,0.78845,17.86981
				c-5.12927,9.96729-21.26416,8.56097-29.48901,8.72687V726.63544z"/>
			<path class="st0" d="M1821.05176,782.3924c0,5.89178,4.98132,9.55273,13.77295,9.55273v2.42517h-54.16821v-2.42517
				c8.67261,0,13.81824-3.66095,13.81824-9.55273v-60.64642c-4.08008,0.09509-15.15369-1.31732-24.46533,5.1051
				c-8.21582,5.65656-7.94312,10.97253-8.849,14.01874h-3.68811v-22.61456h100.46887v22.61456h-3.73193
				c-0.74011-3.0462-0.55603-8.36218-8.85046-14.01874c-9.45032-6.42242-20.27209-5.01001-24.30701-5.1051V782.3924z"/>
			<path class="st0" d="M709.24603,886.84943c0,19.40857-18.66791,26.16388-45.38574,25.33044
				c-28.03143-1.0069-39.50818-13.48669-39.50818-21.32428v-43.29675c0-5.58264-4.75458-9.24823-13.3949-9.24823v-2.30609h53.02069
				v2.30609c-8.52423,0-13.31714,3.66559-13.31714,9.24823v39.46545c0,8.06964,2.3241,16.84174,14.90942,19.40393
				c10.9267,2.18256,37.31226,1.70178,37.31226-19.38141v-39.48798c0-5.58264-4.67389-9.24823-13.06091-9.24823v-2.30609h32.51776
				v2.30609c-8.43219,0-13.09326,3.66559-13.09326,9.24823V886.84943z"/>
			<path class="st0" d="M773.69513,902.54718c0,5.12457,4.15991,5.55719,7.01538,5.55719v2.15521h-36.39209v-2.15521
				c2.95197,0,7.14429-0.43262,7.14429-5.55719v-34.61804c0-5.20746-4.19232-5.46826-7.14429-5.46826v-2.25183h29.37671v9.38715
				h0.42426c2.02649-2.84265,8.13745-10.54004,19.61279-10.54004c7.90393,0,16.62164,2.63904,13.73608,10.98157
				c-1.61945,4.71759-12.05096,6.20221-17.69495,1.61871c-2.92474-2.58484-3.09344-4.75983-9.24603-2.77332
				c-4.6972,1.50726-6.83215,6.55945-6.83215,10.20251V902.54718z"/>
			<path class="st0" d="M903.46973,900.89069c0,5.37024,4.28418,4.46149,8.19629,5.37024l0.20337,2.34381
				c-8.83826,0.21857-13.10223,0.55316-30.73529,3.42743v-7.80591h-0.20355c-3.03015,3.16058-10.30719,8.66943-25.37341,7.80591
				c-16.6488-1.07172-18.83136-6.24597-18.83136-12.69385V867.9231c0-5.20142-4.13873-5.45618-7.065-5.45618v-2.25787h29.29376
				v39.55573c0,5.79974,11.38257,8.36212,22.17957,0.62103V867.9231c0-5.20142-4.09509-5.45618-7.13293-5.45618v-2.25787h29.46857
				V900.89069z"/>
			<path class="st0" d="M985.29785,916.68335c14.81604,0.14325,12.40448,4.81268,8.68762,8.79633
				c-5.36871,5.3703-34.2547,5.10046-40.68298,2.4386c-12.57178-5.39728-3.89923-10.32599,0.78375-11.52429L985.29785,916.68335z
				 M1008.25903,861.28369h-21.80206c-7.29645-3.24963-30.8349-4.40253-43.79932,3.93384
				c-8.96729,5.67786-8.55725,16.3866-0.35944,22.15784c3.5072,2.30756,8.52112,3.71533,12.93726,5.68085
				c-4.90369,1.7016-12.8468,4.10114-16.22906,7.59937c-7.99506,8.38318,4.31061,12.32007,8.185,14.42712
				c-14.50104,1.7439-16.18005,10.49036-6.71625,14.70618c11.29291,5.12744,39.71619,3.57355,48.74908,1.77087
				c9.73212-1.77087,16.58093-5.74854,18.40479-11.62366c4.2865-13.96149-12.86115-15.8847-23.28223-16.11682l-23.69061-0.86218
				c-5.42072-0.29242-8.37946-4.19757-4.61505-6.56543c1.69031-1.00232,3.68964-2.42963,6.23376-2.42963
				c7.23932,0.39478,14.91406,0,22.0719-1.25867c5.82404-0.75055,14.95325-4.72064,16.98346-11.64325
				c2.27448-7.5769-4.55627-12.177-6.25946-13.97955h13.18823V861.28369z M960.19348,887.37537
				c-1.12964-1.62469-5.96417-17.56067,1.31732-22.85406c2.35736-1.79358,10.20386-5.45917,15.67816,1.07471
				c3.57068,4.19604,3.29486,18.93073,0.45221,22.04919C974.11127,891.66943,963.96606,892.26782,960.19348,887.37537"/>
			<path class="st0" d="M1103.66064,900.89069c0,5.37024,4.32727,4.46149,8.14648,5.37024l0.30151,2.34381
				c-8.74048,0.21857-13.10828,0.55316-30.68567,3.42743v-7.80591h-0.37695c-2.88477,3.16058-10.23853,8.66943-25.31238,7.80591
				c-16.57642-1.07172-18.73022-6.24597-18.73022-12.69385V867.9231c0-5.20142-4.18408-5.45618-7.19397-5.45618v-2.25787h29.24316
				v39.55573c0,5.79974,11.43384,8.36212,22.37036,0.62103V867.9231c0-5.20142-4.17957-5.45618-7.14734-5.45618v-2.25787h29.38501
				V900.89069z"/>
			<path class="st0" d="M1200.64319,873.1275c0-3.30676-2.06934-7.05072-8.14954-10.33356
				c-7.89197-3.73779-34.36035-7.06433-48.88391,1.5434c-7.12463,4.25641-5.88733,9.89044-3.18787,12.37439
				c4.36792,3.7168,14.60962,3.29022,18.0144-1.00232c2.72815-3.63995-0.23218-4.98438-2.50952-7.625
				c-2.14478-2.4884-1.50269-3.74707,1.91418-4.85785c3.55249-1.10028,10.32153-1.52533,15.1416,0
				c4.5564,1.46344,5.40503,4.38446,5.40503,8.026v8.98755c-11.98413,2.41913-23.9635,5.20154-28.69177,6.82025
				c-6.02124,2.61346-14.93652,7.29645-14.93652,14.1709c0,4.12091,3.91418,10.8009,19.25781,10.8009
				c10.552,0,17.71606-3.42139,24.04944-6.82788c2.98718,2.68756,6.78699,6.82788,12.2085,6.82788
				c5.85254,0.14771,13.1792-1.53583,19.69946-5.60394l-1.26599-2.56219c-4.55188,2.39197-8.06531,1.1665-8.06531-0.69641V873.1275z
				 M1178.38757,899.98187c-3.40491,3.42285-8.9635,4.698-11.98413,4.698c-9.0614,0-9.81201-8.46002-6.85486-12.17084
				c5.39905-7.06738,16.03088-8.21594,18.83899-8.67871V899.98187z"/>
			<path class="st0" d="M1287.71423,870.10706c4.18713-7.65222-2.36475-7.65222-7.71985-7.65222v-2.24579h24.06287v2.24579
				c-2.22314,0-5.52246,0-7.79993,4.08154l-29.69849,53.71918c-10.05322,18.11694-35.30078,14.82654-37.23462,6.77954
				c-1.91406-9.15637,10.72388-10.94702,16.55847-7.93555c3.25562,1.72876,3.54504,5.41998,2.23218,7.45172
				c1.60828,0.5788,5.16089,0.62708,7.25879,0c4.53369-2.03174,11.09033-11.97339,9.02087-15.23511l-25.2522-44.77979
				c-2.37244-4.08154-5.80579-4.08154-7.88428-4.08154v-2.24579h40.09521v2.24579c-5.22705,0-11.92664,0.22162-7.68518,7.65222
				l12.11194,22.5647L1287.71423,870.10706z"/>
			<path class="st0" d="M877.59894,670.25452h147.99774V500.7644l130.33472,169.49011h164.39795l-146.12-189.61914
				c26.00439-12.47763,100.12976-52.83066,100.12976-162.24786c0-59.08344-35.68201-103.65442-66.05579-127.08804
				c-30.65247-23.52777-68.93311-34.54489-130.60437-34.54489H877.59894V670.25452z M1025.59668,284.33621h33.12598
				c50.89307,0,62.78052,32.32333,62.78052,51.10559c0,17.84482-9.02832,52.04755-62.78052,52.04755h-33.12598V284.33621z"/>
			<polygon class="st0" points="1305.33533,281.74902 1194.0929,281.74902 1194.0929,156.75458 1563.64417,156.75458 
				1563.64417,281.74902 1451.73547,281.74902 1451.73547,670.25763 1305.33533,670.25763 			"/>
			<path class="st0" d="M748.82349,411.78296c-0.50348-16.43555-3.435-32.18164-8.19623-46.72635
				c7.448-2.9263,14.63513-6.17593,21.4931-9.78116c9.63483,16.85379,15.45502,36.06577,16.26593,56.50751H748.82349z
				 M762.05475,478.88467c-6.79236-3.4447-13.97949-6.72891-21.42749-9.62357c4.72882-14.5282,7.69275-30.06995,8.19623-46.48218
				h29.56281C777.4292,443.01956,771.75519,462.01962,762.05475,478.88467 M740.33478,507.09253
				c-5.33032-1.10107-10.77667-2.20953-16.53802-3.14099c5.00928-7.5,9.31317-15.76492,12.9848-24.39084
				c6.79156,2.58798,13.31708,5.58511,19.35504,8.68317C751.48834,494.94131,746.22424,501.23993,740.33478,507.09253
				 M687.00006,539.79333c11.02448-6.60834,21.03778-15.40082,29.60651-25.84595c4.59094,0.71893,9.17065,1.40405,13.55225,2.2782
				C717.52667,526.35571,702.9826,534.49994,687.00006,539.79333 M686.59076,510.25928
				c5.73126,0.56674,11.31635,1.12283,16.82751,1.78528c-9.13617,10.02838-19.71539,18.01965-31.25171,23.10657
				C677.48419,528.44763,682.34344,520.10138,686.59076,510.25928 M647.14062,540.87402v-32.46036
				c9.18274,0.21176,18.49518,0.50269,27.46466,0.98422C666.7594,526.59076,657.0213,537.66144,647.14062,540.87402
				 M647.14062,462.76492c13.76093,0.21176,27.2793,1.4613,40.36816,3.69043c-2.14783,11.95087-5.02209,22.81488-8.50836,32.25171
				c-10.39832-0.67078-21.06512-1.12885-31.8598-1.12885V462.76492z M647.14062,422.77893h44.50397
				c-0.24878,11.52274-1.06647,22.51871-2.48395,32.7814c-13.61633-2.13498-27.68555-3.45599-42.02002-3.61804V422.77893z
				 M647.14062,382.33392c14.33447-0.16577,28.40369-1.56146,42.02002-3.71375c1.41748,10.37646,2.23517,21.3732,2.48395,33.16278
				h-44.50397V382.33392z M647.14062,336.7659c10.8927-0.14926,21.55035-0.578,31.8598-1.24722
				c3.48627,9.39005,6.36053,20.33554,8.50836,32.46115c-13.06171,2.09052-26.60724,3.23233-40.36816,3.50427V336.7659z
				 M647.14062,293.41498c9.88068,3.19006,19.68439,14.13708,27.46466,31.34589c-8.96948,0.64203-18.17108,0.9231-27.46466,1.0694
				V293.41498z M703.41827,322.16763c-5.39374,0.75055-11.09625,1.42133-16.82751,1.75067
				c-4.24731-9.80075-9.10657-18.11166-14.42419-24.69968C683.70288,304.29797,694.2821,312.10309,703.41827,322.16763
				 M730.15881,318.04907c-4.38159,0.81244-8.9613,1.67984-13.55225,2.30167c-8.56873-10.61475-18.58203-19.31522-29.60651-25.90262
				C702.9826,299.79739,717.52667,307.72693,730.15881,318.04907 M703.16272,411.78296
				c-0.28027-12.29443-1.10846-23.93939-2.63751-35.19913c10.17749-1.9873,20.09058-4.5495,29.39838-7.59863
				c4.37634,13.18295,6.85797,27.62302,7.37946,42.79776H703.16272z M700.52521,457.66367
				c1.52905-11.09396,2.35724-22.8374,2.63751-34.88474h34.14032c-0.52148,14.91852-3.00311,29.32541-7.37946,42.64774
				C720.61578,462.33618,710.7027,459.72256,700.52521,457.66367 M690.69128,334.53598
				c7.14423-0.62784,14.07361-1.4213,20.85162-2.39951c5.76819,7.92505,10.73297,16.9118,14.63824,26.55206
				c-8.79242,2.75452-17.93604,5.24448-27.51746,7.20227C696.80975,354.4931,694.0343,344.11899,690.69128,334.53598
				 M726.18115,475.65482c-3.90527,9.70044-8.87006,18.59164-14.6759,26.45111c-6.80579-1.02866-13.66974-1.81705-20.81396-2.39581
				c3.34302-9.38852,6.11847-20.00018,7.97241-31.26593C708.17957,470.28979,717.38873,472.78345,726.18115,475.65482
				 M756.1366,345.9118c-6.03796,3.31134-12.56348,6.22714-19.35504,8.8707c-3.60541-8.8707-7.97552-16.9404-12.96521-24.48795
				c5.74176-1.1492,11.18811-2.1575,16.66766-3.14096C746.24384,332.97977,751.48834,339.25586,756.1366,345.9118
				 M635.61865,325.80991c-9.39838-0.12595-18.6272-0.40701-27.52136-1.04904c7.79175-17.2088,17.57428-28.15582,27.52136-31.34589
				V325.80991z M635.61865,371.4841c-13.80017-0.336-27.39093-1.48984-40.33728-3.66772
				c2.10486-12.02774,4.92639-22.90765,8.34857-32.2977c10.41638,0.66922,20.96405,1.09796,31.98871,1.24722V371.4841z
				 M635.61865,411.78296h-44.47083c0.11761-11.78958,1.07001-22.78632,2.36554-33.09424
				c13.62396,2.18253,27.672,3.40784,42.10529,3.6452V411.78296z M635.61865,451.94229
				c-14.43329,0.16205-28.48132,1.48306-42.10529,3.61804c-1.29553-10.2627-2.24792-21.25867-2.36554-32.7814h44.47083V451.94229z
				 M635.61865,497.57822c-10.81366,0-21.57233,0.45807-31.98871,1.12885c-3.42218-9.43683-6.24371-20.30084-8.40735-32.25171
				c12.91919-2.22913,26.59589-3.47867,40.39606-3.69043V497.57822z M635.61865,540.87402
				c-9.94708-3.21259-19.72961-14.28326-27.52136-31.47614c8.89417-0.48154,18.12299-0.77246,27.52136-0.98422V540.87402z
				 M579.20898,512.04456c5.57233-0.66245,11.18225-1.21854,16.83807-1.78528c4.28357,9.8421,9.11115,18.18835,14.49731,24.89185
				C599.07135,530.06421,588.41968,522.07294,579.20898,512.04456 M552.57404,516.22559
				c4.36353-0.87415,8.88287-1.55927,13.56592-2.2782c8.5285,10.44513,18.52374,19.23761,29.40222,25.84595
				C579.64606,534.49994,565.18658,526.35571,552.57404,516.22559 M526.58636,488.24387
				c6.15863-3.09805,12.58093-6.09518,19.38007-8.68317c3.6037,8.62592,7.88202,16.89084,12.9184,24.39084
				c-5.65808,0.93146-11.14362,2.03992-16.55695,3.14099C536.50922,501.23993,531.25732,494.94131,526.58636,488.24387
				 M504.36234,422.77893h29.60648c0.52148,16.41223,3.25793,31.95398,8.05084,46.48218
				c-7.47809,2.89465-14.67358,6.17886-21.33105,9.62357C511.02811,462.01962,505.22525,443.01956,504.36234,422.77893
				 M520.6886,355.27545c6.65747,3.60522,13.8017,6.85486,21.33105,9.80368c-4.79291,14.56665-7.52936,30.26828-8.05084,46.70383
				h-29.6525C505.07306,391.34122,511.02811,372.26941,520.6886,355.27545 M542.32788,327.15359
				c5.25726,0.98346,10.83405,1.99176,16.55695,3.14096c-5.03638,7.4744-9.3147,15.52679-12.9184,24.24301
				c-6.79913-2.58026-13.22144-5.48929-19.36041-8.71622C531.25732,339.15863,536.50922,332.97977,542.32788,327.15359
				 M595.54218,294.44812c-10.87848,6.5874-20.87372,15.28787-29.35095,25.90262c-4.6687-0.79672-9.25366-1.48923-13.52673-2.32867
				C565.18658,307.72693,579.74329,299.79739,595.54218,294.44812 M579.32214,322.09448
				c9.09753-9.99139,19.74921-17.79651,31.22223-22.87585c-5.38617,6.58801-10.21375,14.89893-14.40765,24.57681
				C590.48834,323.39371,584.78131,322.87003,579.32214,322.09448 M556.6037,358.49933
				c3.9903-9.56555,8.90839-18.43781,14.4151-26.36285c6.91595,0.97821,13.84613,1.77167,21.02435,2.39951
				c-3.23236,9.55429-5.95813,19.90897-8.03882,31.24557C574.56458,363.81015,565.40881,361.31635,556.6037,358.49933
				 M584.00433,468.44418c2.08069,11.26575,4.80646,21.87741,8.03882,31.26593c-7.11261,0.57877-13.97058,1.36716-20.96558,2.39581
				c-5.56549-7.85947-10.48358-16.75067-14.47388-26.45111C565.40881,472.78345,574.41614,470.28979,584.00433,468.44418
				 M545.44183,411.78296c0.5246-15.17474,3.03711-29.5032,7.35461-42.79776c9.34094,3.04913,19.17493,5.61133,29.48883,7.59863
				c-1.61346,11.25974-2.43036,22.90469-2.71063,35.19913H545.44183z M579.57465,422.77893
				c0.28027,12.04733,1.09717,23.79077,2.71063,34.88474c-10.3139,2.0589-20.07776,4.67252-29.41736,7.763
				c-4.33014-13.32233-6.90149-27.72922-7.42609-42.64774H579.57465z M641.83594,146.49945
				c-155.46243,0-281.46823,119.65131-281.46823,267.12604c0,147.56299,126.0058,266.98077,281.46823,266.98077
				c155.42303,0,281.39722-119.41779,281.39722-266.98077C923.23315,266.15076,797.25897,146.49945,641.83594,146.49945"/>
		</g>
	</g>
</g>
</svg>
